<svg width="307px" height="232px" viewBox="283 1659 307 232" version="1.1" xmlns="http://www.w3.org/2000/svg" xmlns:xlink="http://www.w3.org/1999/xlink">
    <!-- Generator: Sketch 41.2 (35397) - http://www.bohemiancoding.com/sketch -->
    <desc>Created with Sketch.</desc>
    <defs>
        <linearGradient x1="24.1318311%" y1="9.52192933%" x2="116.686128%" y2="107.340715%" id="linearGradient-1">
            <stop stop-color="#EAEFF3" offset="0%"></stop>
            <stop stop-color="#FFFFFF" offset="100%"></stop>
        </linearGradient>
    </defs>
    <g id="Group-26" stroke="none" stroke-width="1" fill="none" fill-rule="evenodd" transform="translate(283.000000, 1659.000000)">
        <g id="Group" transform="translate(65.000000, 10.000000)"></g>
        <g id="Group-15">
            <path d="M31.7756359,81.1140476 C27.9919053,84.8967857 2.42714459,110.454841 2.42714459,110.454841 C-1.08936667,113.97043 -0.497472836,118.931299 3.73671007,121.527608 L179.688097,229.417177 C183.927861,232.016909 190.449985,231.517553 194.239363,228.315614 L304.04957,135.528439 C307.846248,132.320331 307.523829,127.568167 303.325364,124.911612 L229.375084,78.12" id="Path-19" fill="#ECF3F8"></path>
            <path d="M2.21029026,89.04 L1.23521587,93.3857631 C0.750627822,95.5455007 1.8907978,98.2138863 3.79355809,99.3527729 L177.134368,203.104953 C181.875135,205.942513 189.189036,205.416634 193.48038,201.922263 L300.488562,114.787251 C302.63157,113.042235 303.751746,109.465869 302.996226,106.819111 L301.898179,102.972402" id="Path-13" fill="#C4CDD6"></path>
            <path d="M134.692022,1.72836177 C131.381003,-0.262921779 126.134598,-0.0559403609 122.99711,2.17413382 L4.6641645,86.2832211 C1.51626203,88.5206978 1.64970549,91.9467503 4.97352557,93.942312 L179.113287,198.492687 C182.432045,200.48521 187.553354,200.12736 190.55627,197.689983 L299.240813,109.47399 C302.673993,106.687381 302.38913,102.583256 298.609227,100.30998 L134.692022,1.72836177 Z" id="Path-12" fill="#082C7A"></path>
            <rect id="Rectangle-9" fill="#07225D" transform="translate(74.171427, 50.893519) rotate(-32.000000) translate(-74.171427, -50.893519) " x="65.6011793" y="49.8596726" width="17.1404959" height="2.06769231" rx="1.03384615"></rect>
            <ellipse id="Oval-4" fill="#399CB6" cx="63.3443526" cy="57.7661538" rx="1.00826446" ry="1.03384615"></ellipse>
            <ellipse id="Oval-3" fill="#06215D" cx="233.320937" cy="142.8" rx="7.14187328" ry="4.2"></ellipse>
            <polygon id="Path-11" fill="url(#linearGradient-1)" points="145.639307 12.6 23.6859504 100.043171 163.238023 182.703281 279.898238 92.8844943"></polygon>
        </g>
        <path d="M65.9473505,87.7762497 C64.0505419,86.6419914 61.0573192,86.7661578 59.2697575,88.0478779 L45.2886117,98.0726592 C43.4974875,99.3569336 43.5822094,101.308278 45.4887539,102.437571 L62.0232004,112.231328 C63.9248601,113.357728 66.8903068,113.17461 68.6339305,111.832163 L81.8780238,101.635298 C83.6273695,100.288446 83.5144508,98.2810687 81.6110187,97.1428496 L65.9473505,87.7762497 Z" id="Path-11" fill="#27638A"></path>
        <path d="M152.201238,21.8523353 C151.318412,21.1895729 149.880435,21.1852761 148.989817,21.8424491 L68.6643584,81.1133578 C67.7735652,81.7706602 67.7781088,82.8208481 68.6808038,83.4635009 L73.1436722,86.6407369 C73.5965885,86.9631802 74.3143337,86.9614107 74.7685876,86.6204306 L155.030935,26.3725102 C155.912257,25.710957 155.912026,24.6381285 155.028212,23.9746246 L152.201238,21.8523353 Z" id="Path-11-Copy-3" fill="#D3DEE5"></path>
        <path d="M118.6769,59.3325708 C118.295633,58.9392802 117.628089,58.8859274 117.17687,59.2200897 L77.3313276,88.7288041 C76.8841509,89.0599731 76.8871016,89.5696218 77.3555183,89.8787512 L81.257703,92.4539807 C81.7182399,92.75791 82.447419,92.7321919 82.8857278,92.397029 L121.053827,63.2109159 C121.492423,62.8755331 121.531979,62.2776899 121.157631,61.8915359 L118.6769,59.3325708 Z" id="Path-11-Copy-3" fill="#D3DEE5" opacity="0.529326026"></path>
        <path d="M92.9473505,105.77625 C91.0505419,104.641991 88.0573192,104.766158 86.2697575,106.047878 L72.2886117,116.072659 C70.4974875,117.356934 70.5822094,119.308278 72.4887539,120.437571 L89.0232004,130.231328 C90.9248601,131.357728 93.8903068,131.17461 95.6339305,129.832163 L108.878024,119.635298 C110.62737,118.288446 110.514451,116.281069 108.611019,115.14285 L92.9473505,105.77625 Z" id="Path-11" fill="#F5BAD4"></path>
        <path d="M182.201238,40.8523353 C181.318412,40.1895729 179.880435,40.1852761 178.989817,40.8424491 L98.6643584,100.113358 C97.7735652,100.77066 97.7781088,101.820848 98.6808038,102.463501 L103.143672,105.640737 C103.596588,105.96318 104.314334,105.961411 104.768588,105.620431 L185.030935,45.3725102 C185.912257,44.710957 185.912026,43.6381285 185.028212,42.9746246 L182.201238,40.8523353 Z" id="Path-11-Copy-3" fill="#D3DEE5"></path>
        <path d="M148.6769,77.3325708 C148.295633,76.9392802 147.628089,76.8859274 147.17687,77.2200897 L107.331328,106.728804 C106.884151,107.059973 106.887102,107.569622 107.355518,107.878751 L111.257703,110.453981 C111.71824,110.75791 112.447419,110.732192 112.885728,110.397029 L151.053827,81.2109159 C151.492423,80.8755331 151.531979,80.2776899 151.157631,79.8915359 L148.6769,77.3325708 Z" id="Path-11-Copy-3" fill="#D3DEE5" opacity="0.529326026"></path>
        <path d="M127.94735,124.77625 C126.050542,123.641991 123.057319,123.766158 121.269758,125.047878 L107.288612,135.072659 C105.497487,136.356934 105.582209,138.308278 107.488754,139.437571 L124.0232,149.231328 C125.92486,150.357728 128.890307,150.17461 130.63393,148.832163 L143.878024,138.635298 C145.62737,137.288446 145.514451,135.281069 143.611019,134.14285 L127.94735,124.77625 Z" id="Path-11" fill="#88DEAF"></path>
        <path d="M217.201238,59.8523353 C216.318412,59.1895729 214.880435,59.1852761 213.989817,59.8424491 L133.664358,119.113358 C132.773565,119.77066 132.778109,120.820848 133.680804,121.463501 L138.143672,124.640737 C138.596588,124.96318 139.314334,124.961411 139.768588,124.620431 L220.030935,64.3725102 C220.912257,63.710957 220.912026,62.6381285 220.028212,61.9746246 L217.201238,59.8523353 Z" id="Path-11-Copy-3" fill="#D3DEE5"></path>
        <path d="M183.6769,96.3325708 C183.295633,95.9392802 182.628089,95.8859274 182.17687,96.2200897 L142.331328,125.728804 C141.884151,126.059973 141.887102,126.569622 142.355518,126.878751 L146.257703,129.453981 C146.71824,129.75791 147.447419,129.732192 147.885728,129.397029 L186.053827,100.210916 C186.492423,99.8755331 186.531979,99.2776899 186.157631,98.8915359 L183.6769,96.3325708 Z" id="Path-11-Copy-3" fill="#D3DEE5" opacity="0.529326026"></path>
        <path d="M160.94735,144.77625 C159.050542,143.641991 156.057319,143.766158 154.269758,145.047878 L140.288612,155.072659 C138.497487,156.356934 138.582209,158.308278 140.488754,159.437571 L157.0232,169.231328 C158.92486,170.357728 161.890307,170.17461 163.63393,168.832163 L176.878024,158.635298 C178.62737,157.288446 178.514451,155.281069 176.611019,154.14285 L160.94735,144.77625 Z" id="Path-11" fill="#62B0ED"></path>
        <path d="M250.201238,79.8523353 C249.318412,79.1895729 247.880435,79.1852761 246.989817,79.8424491 L166.664358,139.113358 C165.773565,139.77066 165.778109,140.820848 166.680804,141.463501 L171.143672,144.640737 C171.596588,144.96318 172.314334,144.961411 172.768588,144.620431 L253.030935,84.3725102 C253.912257,83.710957 253.912026,82.6381285 253.028212,81.9746246 L250.201238,79.8523353 Z" id="Path-11-Copy-3" fill="#D3DEE5"></path>
        <path d="M216.6769,116.332571 C216.295633,115.93928 215.628089,115.885927 215.17687,116.22009 L175.331328,145.728804 C174.884151,146.059973 174.887102,146.569622 175.355518,146.878751 L179.257703,149.453981 C179.71824,149.75791 180.447419,149.732192 180.885728,149.397029 L219.053827,120.210916 C219.492423,119.875533 219.531979,119.27769 219.157631,118.891536 L216.6769,116.332571 Z" id="Path-11-Copy-3" fill="#D3DEE5" opacity="0.529326026"></path>
    </g>
</svg>