<svg width="244px" height="167px" viewBox="1236 1718 244 167" version="1.1" xmlns="http://www.w3.org/2000/svg" xmlns:xlink="http://www.w3.org/1999/xlink">
    <!-- Generator: Sketch 41.2 (35397) - http://www.bohemiancoding.com/sketch -->
    <desc>Created with Sketch.</desc>
    <defs>
        <linearGradient x1="35.1850333%" y1="26.5012416%" x2="109.812538%" y2="122.390777%" id="linearGradient-1">
            <stop stop-color="#EAEFF3" offset="0%"></stop>
            <stop stop-color="#FFFFFF" offset="100%"></stop>
        </linearGradient>
    </defs>
    <g id="Group-27" stroke="none" stroke-width="1" fill="none" fill-rule="evenodd" transform="translate(1239.000000, 1720.000000)">
        <g id="Group-16" transform="translate(0.000000, 0.379267)">
            <path d="M32.1863103,59.1907514 L15.500339,68.7218424 C10.2294883,71.7325726 10.2149668,76.6456758 15.4634768,79.6929947 L153.375179,159.765426 C158.625671,162.813896 167.160439,162.85403 172.44327,159.852141 L226.744752,128.996136 C232.025276,125.995558 232.493622,120.433194 227.801915,116.581347 L210.279385,102.19552" id="Path-14" fill="#ECF3F8"></path>
            <path d="M0,41.6184971 L4.91787179e-14,45.8126876 C7.50954732e-14,48.0229894 1.55102291,50.7180518 3.44868545,51.8231808 L154.675753,139.892274 C159.445472,142.669984 167.16013,142.63528 171.911572,139.811999 L234.358466,102.706399 C236.260205,101.576396 237.51349,98.8893177 237.158356,96.7083128 L236.426234,92.2120964" id="Path-13" fill="#C4CDD6"></path>
            <path d="M80.3159781,1.59853564 C76.9676008,-0.329344342 71.5376554,-0.33195433 68.177217,1.59881855 L3.71296471,38.6373884 C0.35728941,40.5654247 0.35171435,43.6956115 3.70605954,45.6320586 L157.942806,134.672182 C161.294668,136.607196 166.722076,136.616449 170.085013,134.681485 L233.862282,97.9853801 C237.690937,95.7824516 237.689585,92.2088211 233.863785,90.0060573 L80.3159781,1.59853564 Z" id="Path-12" fill="#082C7A"></path>
            <polygon id="Path-11" fill="url(#linearGradient-1)" points="90.4749107 11.0982659 20.3735409 51.0748769 143.600029 122.379267 213.88478 81.8033565"></polygon>
            <ellipse id="Oval-3" fill="#06215D" cx="190.307393" cy="108.208092" rx="7.87159533" ry="4.62427746"></ellipse>
            <rect id="Rectangle-9" fill="#07225D" transform="translate(45.135105, 26.221838) rotate(-32.000000) translate(-45.135105, -26.221838) " x="37.2635101" y="25.2969821" width="15.7431907" height="1.84971098" rx="0.924855491"></rect>
            <ellipse id="Oval-4" fill="#399CB6" cx="35.1906615" cy="32.3699422" rx="0.926070039" ry="0.924855491"></ellipse>
        </g>
        <polygon id="Path-11" fill="#04C9E3" opacity="0.720557369" points="98.6709697 20 36 55.7392871 78.9666665 81.3993974 141.80158 45.1243339"></polygon>
        <path d="M38.2275653,48.0129712 C36.3190675,46.9012379 33.2344508,46.9062607 31.3246093,48.0320129 L31.4437051,47.9618122 C29.5398055,49.0840619 29.5353761,50.9129225 31.4290719,52.0438561 L31.2718623,51.949969 C33.1676802,53.0821699 36.247826,53.0747583 38.1349968,51.9433451 L38.0752219,51.9791819 C39.9698085,50.8433228 39.9608161,49.0226201 38.0500335,47.9095558 L38.2275653,48.0129712 Z" id="Path-11" fill="#07225D" opacity="0.148204291"></path>
        <path d="M92.3058286,17.0582869 C90.354367,15.9215265 87.2003097,15.9266624 85.2474741,17.0777573 L85.3692509,17.0059762 C83.422491,18.1534899 83.4179619,20.0235216 85.3542884,21.1799146 L85.1935397,21.083914 C87.132036,22.2416028 90.2815216,22.2340243 92.2111762,21.077141 L92.1500557,21.1137845 C94.0872929,19.952355 94.0780981,18.0906649 92.1243002,16.9525435 L92.3058286,17.0582869 Z" id="Path-11" fill="#07225D" opacity="0.148204291"></path>
        <polygon id="Path-11" fill="#39D3D7" opacity="0.720557369" points="145.67097 48 83 83.7392871 125.966666 109.399397 188.80158 73.1243339"></polygon>
        <polygon id="Path-11" stroke="#061D4E" stroke-width="0.5" fill="#061C4D" points="199.387073 73.8859463 129.078926 114.231712 143.770814 122.831933 213.891235 82.1942749"></polygon>
    </g>
</svg>