<svg id="Layer_1" data-name="Layer 1" xmlns="http://www.w3.org/2000/svg" viewBox="0 0 362.34355 523.47636"><title>logo</title><g id="Layer_2" data-name="Layer 2"><g id="Layer_1-2" data-name="Layer 1-2"><g id="_Group_" data-name=" Group "><g id="_Group_2" data-name=" Group 2"><g id="_Group_3" data-name=" Group 3"><path id="_Path_2" data-name=" Path 2" d="M672.861,97.5625q-25.43655.00285-50.86889,0c-38.12561-.0111-71.54511-14.234-95.74231-37.1266h-.69318c-7.02081,88.4001-26.76,176.20621-52.57309,263.16762-14.7262,48.37231-5.0061,95.59939,26.46881,133.76229,31.14151,37.67341,84.03812,66.28251,147.974,66.10978h.00061c63.9353.17169,116.83166-28.43671,147.97388-66.10981,31.47509-38.1629,41.19519-85.3909,26.46917-133.76229-25.81286-86.9612-45.55212-174.76751-52.57287-263.16761h-.69391C744.40686,83.3301,710.98761,97.5522,672.861,97.5625Z" transform="translate(-466.25487)" fill="#ce324a"/><path id="_Path_3" data-name=" Path 3" d="M721.43823,145.2541a74.15045,74.15045,0,0,0-74.01147,69.71251,74.15561,74.15561,0,1,0,0,8.8866,74.15033,74.15033,0,1,0,74.01147-78.59909Z" transform="translate(-466.25487)" fill="#c0304d"/><circle id="_Path_4" data-name=" Path 4" cx="104.44161" cy="210.50612" r="74.15552" fill="#ec7589"/><circle id="_Path_5" data-name=" Path 5" cx="257.90206" cy="210.50594" r="74.15559" fill="#ec7589"/><circle id="_Path_6" data-name=" Path 6" cx="257.9023" cy="210.5058" r="60.01367" fill="#fbfdfd"/><circle id="_Path_7" data-name=" Path 7" cx="243.29519" cy="230.84155" r="25.15771" fill="#070807"/><path id="_Path_8" data-name=" Path 8" d="M702.38544,218.86279a7.48654,7.48654,0,1,0,9.33661-4.99244l-.00019-.00005A7.48668,7.48668,0,0,0,702.38544,218.86279Z" transform="translate(-466.25487)" fill="#58595b"/><circle id="_Path_9" data-name=" Path 9" cx="103.78822" cy="210.50577" r="60.01359" fill="#fbfdfd"/><circle id="_Path_10" data-name=" Path 10" cx="584.98279" cy="230.5983" r="25.15778" transform="translate(-261.65849 731.28445) rotate(-74.28916)" fill="#070807"/><path id="_Path_11" data-name=" Path 11" d="M580.73785,227.2014a7.48652,7.48652,0,1,0-1.92132-10.41174l-.00025.00035A7.48647,7.48647,0,0,0,580.73785,227.2014Z" transform="translate(-466.25487)" fill="#58595b"/><path id="_Path_12" data-name=" Path 12" d="M736.19336,353.8689c6.37274-27.96469,14.43921-48.71991,23.31421-63.09162-12.55829,13.505-24.19989,38.1102-32.777,75.748-11.27948,49.49649-1.89447,110.5365,3.8924,139.49261q5.62436-2.532,10.98138-5.36889C736.25043,476.00879,723.85022,408.0329,736.19336,353.8689Z" transform="translate(-466.25487)" fill="#c0304d"/><path id="_Path_13" data-name=" Path 13" d="M568.11243,366.5484c-8.557-37.5495-20.16462-62.12341-32.68952-75.64831,8.84473,14.36691,16.88288,35.08508,23.23719,62.96881,12.34307,54.1647-.05762,122.14151-5.41132,146.78109q1.0372.54918,2.08368,1.0882c.626.32141,1.252.643,1.88348.9584q1.507.75334,3.036,1.48221,1.02631.49023,2.06342.96842c.6333.29348,1.27118.58151,1.90948.86889C570.01227,477.0502,579.38873,416.03131,568.11243,366.5484Z" transform="translate(-466.25487)" fill="#c0304d"/><g id="_Group_4" data-name=" Group 4"><path id="_Path_14" data-name=" Path 14" d="M702.89453,335.4017q12.10227,0,24.14752-9.12219a2.16654,2.16654,0,0,0-2.621-3.4505c-14.485,10.997-28.56964,10.9957-43.05493-.0014a2.16757,2.16757,0,1,0-2.62073,3.4533C686.75732,332.36029,694.82605,335.4017,702.89453,335.4017Z" transform="translate(-466.25487)" fill="#c0304d"/><path id="_Path_15" data-name=" Path 15" d="M645.83966,335.4017q12.10245,0,24.14758-9.12219a2.16654,2.16654,0,0,0-2.621-3.4505c-14.48511,10.997-28.56958,10.9957-43.055-.0014a2.16754,2.16754,0,1,0-2.62061,3.4533C629.70258,332.36029,637.77118,335.4017,645.83966,335.4017Z" transform="translate(-466.25487)" fill="#c0304d"/><path id="_Path_16" data-name=" Path 16" d="M588.78485,335.4017q12.10254,0,24.14752-9.12219a2.16654,2.16654,0,0,0-2.621-3.4505c-14.48492,10.997-28.56952,10.9957-43.05493-.0014a2.16757,2.16757,0,1,0-2.62073,3.4533C572.64764,332.36029,580.71637,335.4017,588.78485,335.4017Z" transform="translate(-466.25487)" fill="#c0304d"/><path id="_Path_17" data-name=" Path 17" d="M706.85657,362.24341a2.17027,2.17027,0,0,0,.41632,3.037c8.0119,6.07928,16.08063,9.12069,24.149,9.12069s16.13537-3.04141,24.14758-9.1221a2.1665,2.1665,0,0,0-2.621-3.45041c-14.485,10.997-28.56958,10.99552-43.05494-.00149A2.16788,2.16788,0,0,0,706.85657,362.24341Z" transform="translate(-466.25487)" fill="#c0304d"/><path id="_Path_18" data-name=" Path 18" d="M649.80188,362.24341a2.17,2.17,0,0,0,.41632,3.037c8.01178,6.07928,16.08038,9.12069,24.1488,9.12069s16.1355-3.04141,24.14771-9.1221a2.1665,2.1665,0,0,0-2.621-3.45041c-14.48511,10.997-28.56958,10.99552-43.05487-.00149A2.16777,2.16777,0,0,0,649.80188,362.24341Z" transform="translate(-466.25487)" fill="#c0304d"/><path id="_Path_19" data-name=" Path 19" d="M592.747,362.24341a2.17015,2.17015,0,0,0,.4162,3.037c8.0119,6.07928,16.08063,9.12069,24.14911,9.12069q12.10245,0,24.14758-9.1221a2.1665,2.1665,0,0,0-2.621-3.45041c-14.48511,10.997-28.56958,10.99552-43.055-.00149A2.16778,2.16778,0,0,0,592.747,362.24341Z" transform="translate(-466.25487)" fill="#c0304d"/><path id="_Path_20" data-name=" Path 20" d="M560.25745,374.40109q12.10226,0,24.14752-9.1221a2.1665,2.1665,0,0,0-2.621-3.45041c-14.48487,10.997-28.56952,10.99552-43.05487-.00149a2.16758,2.16758,0,1,0-2.62073,3.45331C544.12024,371.35971,552.189,374.40109,560.25745,374.40109Z" transform="translate(-466.25487)" fill="#c0304d"/><path id="_Path_21" data-name=" Path 21" d="M729.26208,401.24289a2.16422,2.16422,0,0,0-3.0321-.41739l-.0033.0025c-14.4851,10.997-28.56958,10.99561-43.055-.00131a2.16749,2.16749,0,1,0-2.6206,3.45319h0c8.0119,6.0794,16.08038,9.12079,24.14886,9.12079s16.13538-3.04142,24.14771-9.12232A2.16673,2.16673,0,0,0,729.26208,401.24289Z" transform="translate(-466.25487)" fill="#c0304d"/><path id="_Path_22" data-name=" Path 22" d="M672.20721,401.24289a2.16446,2.16446,0,0,0-3.03241-.4173l-.00317.00241c-14.48492,10.997-28.5694,10.99561-43.05481-.00131a2.16752,2.16752,0,1,0-2.62567,3.4494l.00494.00379c8.01191,6.0794,16.08063,9.12079,24.149,9.12079s16.13538-3.04142,24.14758-9.12232A2.16663,2.16663,0,0,0,672.20721,401.24289Z" transform="translate(-466.25487)" fill="#c0304d"/><path id="_Path_23" data-name=" Path 23" d="M615.15253,401.24289a2.16449,2.16449,0,0,0-3.03247-.41727l-.00312.00238c-14.485,10.997-28.56958,10.99561-43.05487-.00131a2.16752,2.16752,0,0,0-2.62567,3.4494l.005.00379c8.0119,6.0794,16.08062,9.12079,24.149,9.12079s16.13538-3.04142,24.14759-9.12232A2.1667,2.1667,0,0,0,615.15253,401.24289Z" transform="translate(-466.25487)" fill="#c0304d"/><path id="_Path_24" data-name=" Path 24" d="M752.94843,439.82761c-14.485,10.997-28.56958,10.99551-43.05488-.0015a2.16752,2.16752,0,0,0-2.62567,3.4494l.005.00379c8.0119,6.0795,16.08062,9.12091,24.149,9.12091s16.13538-3.04141,24.14759-9.12219a2.1665,2.1665,0,0,0-2.621-3.45041Z" transform="translate(-466.25487)" fill="#c0304d"/><path id="_Path_25" data-name=" Path 25" d="M695.89362,439.82761c-14.48511,10.997-28.56958,10.99551-43.05487-.0015a2.16749,2.16749,0,1,0-2.62061,3.45319c8.01178,6.0795,16.08038,9.12091,24.1488,9.12091s16.1355-3.04141,24.14771-9.12219a2.1665,2.1665,0,0,0-2.621-3.45041Z" transform="translate(-466.25487)" fill="#c0304d"/><path id="_Path_26" data-name=" Path 26" d="M638.83887,439.82761c-14.48511,10.997-28.56958,10.99551-43.055-.0015a2.16753,2.16753,0,0,0-2.62072,3.45319c8.0119,6.0795,16.08062,9.12091,24.14911,9.12091q12.10243,0,24.14758-9.12219a2.1665,2.1665,0,0,0-2.621-3.45041Z" transform="translate(-466.25487)" fill="#c0304d"/><path id="_Path_27" data-name=" Path 27" d="M581.784,439.82761c-14.48487,10.997-28.56952,10.99551-43.05487-.0015a2.16753,2.16753,0,0,0-2.62073,3.45319c8.0119,6.0795,16.08063,9.12091,24.14911,9.12091q12.10226,0,24.14752-9.12219a2.1665,2.1665,0,0,0-2.621-3.45041Z" transform="translate(-466.25487)" fill="#c0304d"/></g><path id="_Path_28" data-name=" Path 28" d="M818.36523,372.5946c15.36383-67.41931,3.7677-101.445-18.92358-106.61608-22.6911-5.1709-47.88452,20.47119-63.24829,87.89041s7.61133,156.25619,7.61133,156.25619S803.00153,440.01379,818.36523,372.5946Z" transform="translate(-466.25487)" fill="#f15951"/><path id="_Path_29" data-name=" Path 29" d="M476.48816,372.5946c-15.3638-67.41931-3.76761-101.445,18.92358-106.61608,22.6911-5.1709,47.88459,20.47119,63.24842,87.89041,15.36358,67.41919-7.61139,156.25619-7.61139,156.25619S491.85184,440.01379,476.48816,372.5946Z" transform="translate(-466.25487)" fill="#f15951"/><path id="_Compound_Path_" data-name=" Compound Path " d="M826.99524,190.08031a8.10969,8.10969,0,0,0-10.69482-2.98551l-15.43213,8.09841a78.2285,78.2285,0,0,0-149.54609-13.2477,79.11672,79.11672,0,0,0-3.89587,13.308,78.23133,78.23133,0,0,0-153.4491-.0591l-15.4335-8.09959a8.09669,8.09669,0,0,0-7.52478,14.33887l.03919.02043,2.1333,1.10429a2.03876,2.03876,0,1,0,1.88235-3.617l-.00806-.00417-2.13259-1.10451a4.01941,4.01941,0,0,1-1.72065-5.41765q.06015-.1161.12775-.22815a4.0262,4.0262,0,0,1,5.3085-1.48139l16.61341,8.7182A78.22733,78.22733,0,0,0,647.42273,225.7789a78.29446,78.29446,0,0,0,76.77179,62.979h.00061A78.269,78.269,0,0,0,801.588,199.4203l16.60687-8.71479a4.01906,4.01906,0,0,1,3.94288,7.00061q-.111.06691-.226.12658l-2.1333,1.10451a2.03877,2.03877,0,0,0,1.86719,3.62491l.0072-.00371,2.134-1.10429a8.099,8.099,0,0,0,3.464-10.91736q-.12039-.23227-.25561-.45644ZM570.69647,284.66159a74.15565,74.15565,0,1,1,74.1557-74.15559v.00009A74.15572,74.15572,0,0,1,570.69647,284.66159Zm183.1355-6.19641a74.1556,74.1556,0,1,1,38.284-97.63431,74.15562,74.15562,0,0,1-38.284,97.63431Z" transform="translate(-466.25487)" fill="#4a3b3c"/><path id="_Path_30" data-name=" Path 30" d="M668.99792,266.01959,647.42676,306.919l-21.57147-40.89942a10.51322,10.51322,0,0,1-.909-7.64139c5.10492-18.31619,39.85583-18.31619,44.961,0A10.51234,10.51234,0,0,1,668.99792,266.01959Z" transform="translate(-466.25487)" fill="#f9ed32"/><path id="_Path_31" data-name=" Path 31" d="M658.08984,262.10669c-2.954.9899-18.37237.98959-21.32629,0-3.36267-.77631-.53412-11.6754,10.66351-11.8998C658.62366,250.4325,661.45276,261.32971,658.08984,262.10669Z" transform="translate(-466.25487)" fill="#f8eca4"/></g><g id="_Group_9" data-name=" Group 9"><path id="_Path_61" data-name=" Path 61" d="M647.42175,82.9359l-70.7464-21.1377V98.4081c.00013,32.4445,145.33338,32.4445,145.33338,0V60.6506Z" transform="translate(-466.25487)" fill="#3f3233"/></g><polygon id="_Path_62" data-name=" Path 62" points="181.167 0 181.167 0 36.24 43.301 181.167 86.602 181.167 86.602 326.093 43.301 181.167 0" fill="#4a3b3c"/><polygon id="_Path_63" data-name=" Path 63" points="181.167 95.269 255.754 72.984 255.754 64.317 181.167 86.603 110.42 65.465 110.42 74.132 181.167 95.269" fill="#352a2c"/><g id="_Group_10" data-name=" Group 10"><path id="_Path_64" data-name=" Path 64" d="M726.34985,94.2906a.99975.99975,0,0,1-1-.99944V63.8016L647.17944,44.2714a.99954.99954,0,0,1,.47785-1.94113l.00653.00163L726.592,62.0506a.99893.99893,0,0,1,.75775.9698V93.2906a.99965.99965,0,0,1-.99933,1Z" transform="translate(-466.25487)" fill="#fbb040"/></g><path id="_Path_65" data-name=" Path 65" d="M729.342,85.2906a2.9924,2.9924,0,1,1-2.99249-2.9923h.00006a2.99236,2.99236,0,0,1,2.99243,2.99229Z" transform="translate(-466.25487)" fill="#f2c333"/><path id="_Path_66" data-name=" Path 66" d="M728.77124,87.0361a2.97473,2.97473,0,0,1-4.84308,0c-2.43017,1.8516-3.37579,4.5365-3.14862,7.8795,0,2.54171,11.14032,2.54171,11.14032,0C732.14691,91.5726,731.20142,88.8877,728.77124,87.0361Z" transform="translate(-466.25487)" fill="#fbb040"/><path id="_Path_67" data-name=" Path 67" d="M728.88812,87.1378c-.0412-.0326-.0747-.0696-.11688-.1017a2.97473,2.97473,0,0,1-4.84308,0c-.13409.10221-.24658.2162-.3717.3234a2.9756,2.9756,0,0,0,5.33172-.2217Z" transform="translate(-466.25487)" fill="#eda23d"/><path id="_Path_68" data-name=" Path 68" d="M726.34967,82.2982a2.96526,2.96526,0,0,1,1.00018.1841v-.4375a2.808,2.808,0,0,0-2,0v.4375A2.96174,2.96174,0,0,1,726.34967,82.2982Z" transform="translate(-466.25487)" fill="#eda23d"/><path id="_Path_69" data-name=" Path 69" d="M647.17944,44.2714a.97078.97078,0,0,1-.25836-.1229.993.993,0,0,0,.72717.7635L723.516,63.8671l.95429-.28519Z" transform="translate(-466.25487)" fill="#3f3233"/></g></g></g></g></svg>