<?xml version="1.0" ?><!DOCTYPE svg  PUBLIC '-//W3C//DTD SVG 1.1//EN'  'http://www.w3.org/Graphics/SVG/1.1/DTD/svg11.dtd'><svg enable-background="new 0 0 64 64" height="64px" id="You_To_Be_:D" version="1.1" viewBox="0 0 64 64" width="64px" xml:space="preserve" xmlns="http://www.w3.org/2000/svg" xmlns:xlink="http://www.w3.org/1999/xlink"><linearGradient gradientTransform="matrix(1 0 0 -1 -2466 -3207)" gradientUnits="userSpaceOnUse" id="Circle_Shadow_1_" x1="2530.0303" x2="2498.0303" y1="-3270.999" y2="-3238.999"><stop offset="0.3163" style="stop-color:#FFFFFF;stop-opacity:0"/><stop offset="0.3508" style="stop-color:#E9E9E9;stop-opacity:0.0504"/><stop offset="0.4543" style="stop-color:#ACACAC;stop-opacity:0.2018"/><stop offset="0.5572" style="stop-color:#787878;stop-opacity:0.3523"/><stop offset="0.6569" style="stop-color:#4D4D4D;stop-opacity:0.4981"/><stop offset="0.7528" style="stop-color:#2B2B2B;stop-opacity:0.6385"/><stop offset="0.8441" style="stop-color:#131313;stop-opacity:0.7719"/><stop offset="0.9286" style="stop-color:#050505;stop-opacity:0.8956"/><stop offset="1" style="stop-color:#000000"/></linearGradient><polygon enable-background="new    " fill="url(#Circle_Shadow_1_)" id="Circle_Shadow" opacity="0.2" points="64.029,64   64.029,30.059 49,15.029 15.059,48.971 30.088,64 "/><circle cx="32" cy="32" fill="#CF3427" id="Circle" r="24"/><g id="_x5B___x3E___x5D__Shadow"><g><defs><circle cx="32.029" cy="32" id="SVGID_1_" r="24"/></defs><clipPath id="SVGID_2_"><use overflow="visible" xlink:href="#SVGID_1_"/></clipPath><linearGradient gradientTransform="matrix(1 0 0 -1 -274 -299)" gradientUnits="userSpaceOnUse" id="SVGID_3_" x1="349.2725" x2="294.7762" y1="-374.2798" y2="-319.7835"><stop offset="0.5153" style="stop-color:#000000;stop-opacity:0"/><stop offset="0.6174" style="stop-color:#290000"/></linearGradient><path clip-path="url(#SVGID_2_)" d="M78.729,58.047    c0,0-0.293-2.066-1.19-2.979c-0.026-0.027-0.054-0.047-0.08-0.072c-0.009-0.012-0.017-0.023-0.026-0.034    c-0.025-0.026-0.054-0.047-0.08-0.071c-0.009-0.012-0.017-0.024-0.025-0.035c-0.026-0.026-0.055-0.047-0.08-0.071    c-0.01-0.011-0.018-0.024-0.025-0.034c-0.027-0.027-0.056-0.048-0.082-0.075c-0.01-0.009-0.017-0.021-0.025-0.03    c-0.025-0.026-0.053-0.047-0.079-0.072c-0.011-0.01-0.017-0.023-0.026-0.033c-0.025-0.027-0.054-0.047-0.08-0.072    c-0.009-0.011-0.017-0.023-0.025-0.033c-0.026-0.027-0.055-0.048-0.08-0.072c-0.01-0.012-0.018-0.024-0.026-0.034    c-0.024-0.026-0.051-0.044-0.076-0.069c-0.011-0.012-0.019-0.025-0.028-0.037c-0.027-0.027-0.057-0.049-0.084-0.074    c-0.008-0.01-0.016-0.022-0.023-0.031c-0.025-0.026-0.051-0.045-0.076-0.069c-0.011-0.012-0.02-0.026-0.029-0.037    c-0.027-0.028-0.058-0.05-0.086-0.077c-0.008-0.009-0.014-0.021-0.021-0.027c-0.024-0.025-0.05-0.043-0.074-0.067    c-0.011-0.012-0.021-0.028-0.03-0.04c-0.029-0.029-0.059-0.05-0.086-0.078c-0.009-0.008-0.015-0.02-0.021-0.027    c-0.025-0.025-0.051-0.043-0.076-0.068c-0.012-0.012-0.02-0.025-0.029-0.037c-0.025-0.027-0.054-0.047-0.08-0.072    c-0.009-0.011-0.017-0.023-0.025-0.033c-0.026-0.027-0.055-0.047-0.08-0.073c-0.01-0.011-0.018-0.023-0.026-0.033    c-0.026-0.028-0.055-0.048-0.082-0.075c-0.009-0.009-0.016-0.021-0.024-0.029c-0.024-0.026-0.051-0.045-0.076-0.07    c-0.012-0.012-0.02-0.026-0.029-0.037c-0.025-0.027-0.054-0.047-0.08-0.072c-0.009-0.011-0.017-0.023-0.025-0.033    c-0.027-0.029-0.056-0.049-0.082-0.076c-0.01-0.008-0.017-0.021-0.024-0.029c-0.026-0.027-0.054-0.047-0.08-0.072    c-0.009-0.011-0.017-0.023-0.026-0.033c-0.025-0.027-0.054-0.048-0.08-0.072c-0.008-0.012-0.017-0.024-0.025-0.034    c-0.025-0.027-0.055-0.048-0.08-0.072c-0.009-0.011-0.018-0.024-0.025-0.034c-0.026-0.027-0.055-0.047-0.08-0.072    c-0.01-0.011-0.018-0.023-0.026-0.033c-0.026-0.027-0.054-0.047-0.08-0.072c-0.009-0.012-0.017-0.023-0.026-0.034    c-0.027-0.028-0.055-0.048-0.082-0.075c-0.009-0.009-0.016-0.021-0.023-0.029c-0.026-0.027-0.055-0.047-0.079-0.072    c-0.011-0.012-0.019-0.023-0.027-0.034c-0.026-0.026-0.054-0.047-0.079-0.073c-0.011-0.01-0.018-0.022-0.027-0.033    c-0.025-0.026-0.053-0.047-0.08-0.071c-0.008-0.011-0.016-0.024-0.025-0.034c-0.025-0.027-0.054-0.047-0.08-0.072    c-0.009-0.011-0.017-0.023-0.025-0.033c-0.026-0.027-0.055-0.047-0.08-0.072c-0.01-0.012-0.018-0.024-0.026-0.034    c-0.026-0.027-0.054-0.047-0.08-0.072c-0.009-0.011-0.017-0.024-0.026-0.034c-0.026-0.027-0.055-0.048-0.082-0.074    c-0.008-0.01-0.016-0.021-0.023-0.03c-0.025-0.026-0.053-0.045-0.077-0.07c-0.011-0.011-0.019-0.026-0.028-0.037    c-0.027-0.028-0.057-0.048-0.082-0.075c-0.01-0.009-0.017-0.021-0.024-0.029c-0.025-0.026-0.052-0.045-0.076-0.069    c-0.011-0.012-0.019-0.026-0.028-0.037c-0.027-0.028-0.057-0.049-0.084-0.075c-0.009-0.01-0.016-0.021-0.023-0.031    c-0.025-0.025-0.051-0.043-0.076-0.068c-0.012-0.012-0.02-0.025-0.029-0.037c-0.027-0.027-0.056-0.049-0.083-0.076    c-0.009-0.009-0.016-0.021-0.024-0.029c-0.025-0.027-0.053-0.047-0.078-0.072c-0.01-0.01-0.018-0.023-0.026-0.033    c-0.026-0.027-0.054-0.047-0.08-0.072c-0.01-0.012-0.018-0.025-0.026-0.035c-0.026-0.026-0.053-0.045-0.08-0.071    c-0.01-0.011-0.017-0.023-0.025-0.033c-0.027-0.028-0.057-0.049-0.083-0.076c-0.009-0.009-0.017-0.021-0.024-0.03    c-0.024-0.025-0.051-0.043-0.076-0.068c-0.01-0.012-0.019-0.026-0.028-0.037c-0.026-0.027-0.054-0.047-0.08-0.072    c-0.009-0.011-0.017-0.023-0.026-0.033c-0.025-0.027-0.054-0.048-0.08-0.072c-0.009-0.012-0.017-0.024-0.025-0.034    c-0.026-0.027-0.055-0.048-0.08-0.072c-0.01-0.011-0.018-0.024-0.025-0.034c-0.027-0.027-0.055-0.047-0.08-0.072    c-0.01-0.011-0.018-0.023-0.026-0.033c-0.027-0.028-0.056-0.049-0.082-0.075c-0.009-0.009-0.017-0.021-0.024-0.03    c-0.025-0.027-0.054-0.047-0.08-0.072c-0.009-0.011-0.017-0.023-0.025-0.033c-0.026-0.027-0.055-0.047-0.08-0.072    c-0.01-0.012-0.018-0.023-0.026-0.034c-0.026-0.026-0.054-0.047-0.08-0.071c-0.009-0.012-0.017-0.024-0.026-0.035    c-0.025-0.026-0.053-0.047-0.08-0.071c-0.008-0.011-0.017-0.024-0.025-0.034c-0.025-0.027-0.055-0.047-0.08-0.072    c-0.009-0.011-0.018-0.023-0.025-0.033c-0.027-0.028-0.056-0.049-0.082-0.076c-0.01-0.008-0.017-0.021-0.024-0.029    c-0.026-0.027-0.054-0.047-0.08-0.073c-0.009-0.01-0.017-0.022-0.026-0.032c-0.024-0.026-0.052-0.045-0.076-0.07    c-0.012-0.012-0.02-0.026-0.029-0.037c-0.027-0.028-0.055-0.049-0.082-0.075c-0.01-0.009-0.016-0.021-0.023-0.03    c-0.027-0.027-0.055-0.047-0.08-0.072c-0.01-0.01-0.018-0.023-0.026-0.033c-0.026-0.027-0.054-0.047-0.08-0.072    c-0.009-0.011-0.017-0.023-0.026-0.034c-0.025-0.026-0.054-0.047-0.08-0.071c-0.009-0.012-0.017-0.024-0.025-0.035    c-0.026-0.026-0.055-0.045-0.08-0.071c-0.01-0.011-0.018-0.024-0.026-0.034c-0.026-0.027-0.055-0.048-0.082-0.074    c-0.009-0.01-0.016-0.021-0.024-0.031c-0.025-0.026-0.054-0.047-0.078-0.071c-0.01-0.011-0.019-0.024-0.027-0.034    c-0.025-0.027-0.053-0.046-0.08-0.072c-0.009-0.011-0.018-0.023-0.025-0.033c-0.025-0.026-0.052-0.045-0.076-0.069    c-0.012-0.013-0.02-0.026-0.029-0.037c-0.027-0.028-0.057-0.048-0.083-0.075c-0.009-0.01-0.017-0.021-0.024-0.031    c-0.024-0.025-0.051-0.043-0.076-0.068c-0.01-0.012-0.019-0.026-0.028-0.037c-0.027-0.028-0.056-0.048-0.083-0.075    c-0.01-0.01-0.016-0.022-0.023-0.03c-0.025-0.027-0.052-0.045-0.076-0.07c-0.012-0.012-0.02-0.025-0.029-0.036    c-0.028-0.029-0.059-0.05-0.086-0.078c-0.008-0.008-0.014-0.021-0.021-0.026c-0.025-0.027-0.051-0.045-0.076-0.07    c-0.011-0.012-0.019-0.025-0.029-0.036c-0.025-0.027-0.053-0.048-0.079-0.072c-0.009-0.011-0.017-0.024-0.026-0.034    c-0.025-0.027-0.054-0.047-0.08-0.072c-0.009-0.011-0.017-0.023-0.025-0.033c-0.026-0.027-0.055-0.047-0.08-0.072    c-0.01-0.012-0.018-0.023-0.026-0.034c-0.026-0.026-0.054-0.047-0.08-0.071c-0.009-0.012-0.017-0.024-0.026-0.035    c-0.025-0.026-0.054-0.047-0.08-0.071c-0.008-0.011-0.017-0.024-0.025-0.034c-0.027-0.027-0.055-0.048-0.082-0.075    c-0.009-0.009-0.016-0.021-0.023-0.03c-0.026-0.026-0.055-0.047-0.08-0.071c-0.01-0.011-0.018-0.024-0.026-0.034    c-0.026-0.027-0.054-0.047-0.08-0.072c-0.009-0.011-0.017-0.023-0.026-0.033c-0.025-0.027-0.054-0.047-0.08-0.072    c-0.009-0.012-0.017-0.024-0.025-0.034c-0.026-0.027-0.055-0.047-0.08-0.072c-0.01-0.011-0.018-0.024-0.026-0.034    c-0.026-0.027-0.054-0.046-0.079-0.072c-0.01-0.01-0.018-0.023-0.027-0.033c-0.025-0.027-0.053-0.047-0.079-0.072    c-0.009-0.011-0.017-0.023-0.026-0.034c-0.025-0.026-0.054-0.046-0.08-0.071c-0.009-0.012-0.017-0.024-0.025-0.035    c-0.027-0.027-0.056-0.047-0.082-0.074c-0.01-0.01-0.017-0.021-0.024-0.03c-0.026-0.026-0.054-0.047-0.08-0.071    c-0.009-0.012-0.017-0.024-0.026-0.035c-0.025-0.026-0.054-0.045-0.08-0.071c-0.008-0.011-0.017-0.024-0.025-0.034    c-0.025-0.027-0.055-0.047-0.08-0.072c-0.009-0.011-0.018-0.023-0.025-0.033c-0.026-0.027-0.055-0.047-0.08-0.072    c-0.01-0.012-0.018-0.024-0.026-0.034c-0.027-0.028-0.056-0.048-0.083-0.075c-0.008-0.009-0.016-0.021-0.023-0.029    c-0.025-0.026-0.052-0.045-0.076-0.07c-0.012-0.012-0.02-0.026-0.029-0.037c-0.026-0.027-0.055-0.047-0.079-0.072    c-0.011-0.011-0.019-0.023-0.027-0.033c-0.026-0.027-0.053-0.047-0.079-0.072c-0.01-0.01-0.017-0.023-0.025-0.033    c-0.027-0.028-0.057-0.049-0.084-0.076c-0.008-0.009-0.016-0.021-0.023-0.029c-0.025-0.027-0.051-0.045-0.076-0.07    c-0.011-0.01-0.019-0.025-0.029-0.036c-0.026-0.028-0.056-0.05-0.082-0.076c-0.01-0.009-0.017-0.021-0.024-0.03    c-0.026-0.027-0.053-0.046-0.079-0.072c-0.01-0.01-0.018-0.022-0.025-0.033c-0.026-0.026-0.055-0.047-0.08-0.072    c-0.01-0.012-0.019-0.023-0.027-0.034c-0.025-0.026-0.053-0.046-0.079-0.071c-0.01-0.011-0.017-0.023-0.026-0.033    c-0.024-0.026-0.052-0.045-0.076-0.07c-0.012-0.012-0.02-0.025-0.029-0.037c-0.027-0.027-0.055-0.048-0.082-0.074    c-0.01-0.01-0.016-0.021-0.023-0.031c-0.027-0.026-0.055-0.047-0.08-0.071c-0.01-0.011-0.018-0.024-0.026-0.034    c-0.026-0.027-0.054-0.046-0.08-0.072c-0.009-0.011-0.017-0.023-0.026-0.033c-0.025-0.027-0.053-0.047-0.08-0.072    c-0.009-0.012-0.017-0.024-0.025-0.034c-0.026-0.026-0.055-0.046-0.08-0.072c-0.01-0.011-0.018-0.024-0.026-0.034    c-0.026-0.027-0.055-0.048-0.082-0.074c-0.009-0.01-0.016-0.021-0.024-0.03c-0.024-0.026-0.051-0.045-0.076-0.07    c-0.012-0.012-0.02-0.026-0.029-0.036c-0.027-0.029-0.055-0.049-0.082-0.076c-0.009-0.008-0.016-0.021-0.023-0.029    c-0.026-0.027-0.055-0.047-0.08-0.072c-0.01-0.011-0.018-0.023-0.026-0.034c-0.026-0.026-0.054-0.047-0.08-0.071    c-0.009-0.012-0.017-0.024-0.026-0.035c-0.025-0.026-0.053-0.045-0.078-0.071c-0.011-0.011-0.019-0.024-0.027-0.034    c-0.026-0.027-0.053-0.046-0.08-0.072c-0.01-0.011-0.018-0.023-0.025-0.033c-0.027-0.028-0.056-0.049-0.082-0.075    c-0.01-0.009-0.017-0.021-0.024-0.03c-0.025-0.025-0.052-0.045-0.077-0.07c-0.012-0.011-0.02-0.025-0.029-0.037    c-0.027-0.027-0.055-0.047-0.082-0.074c-0.009-0.01-0.016-0.021-0.023-0.03c-0.025-0.026-0.051-0.044-0.076-0.069    c-0.012-0.012-0.02-0.025-0.029-0.037c-0.027-0.027-0.056-0.049-0.083-0.076c-0.009-0.008-0.016-0.021-0.024-0.029    c-0.024-0.025-0.051-0.044-0.075-0.069c-0.011-0.011-0.019-0.026-0.029-0.036c-0.026-0.029-0.056-0.049-0.083-0.076    c-0.009-0.01-0.016-0.021-0.023-0.03c-0.025-0.026-0.052-0.044-0.076-0.069c-0.012-0.012-0.02-0.025-0.029-0.037    c-0.027-0.027-0.057-0.049-0.083-0.076c-0.009-0.009-0.017-0.021-0.024-0.029c-0.025-0.027-0.053-0.047-0.078-0.072    c-0.01-0.01-0.018-0.023-0.026-0.033c-0.024-0.025-0.052-0.045-0.077-0.07c-0.011-0.01-0.02-0.025-0.029-0.037    c-0.027-0.027-0.055-0.047-0.082-0.074c-0.009-0.01-0.016-0.021-0.023-0.03c-0.026-0.026-0.053-0.047-0.08-0.071    c-0.01-0.012-0.018-0.024-0.026-0.035c-0.026-0.026-0.054-0.045-0.079-0.071c-0.01-0.011-0.018-0.024-0.027-0.034    c-0.025-0.027-0.053-0.047-0.079-0.072c-0.009-0.011-0.017-0.023-0.026-0.033c-0.027-0.028-0.055-0.049-0.082-0.076    c-0.009-0.008-0.016-0.021-0.023-0.029c-0.026-0.027-0.055-0.047-0.08-0.072c-0.01-0.011-0.018-0.023-0.026-0.033    c-0.024-0.026-0.052-0.045-0.077-0.07c-0.011-0.012-0.019-0.026-0.029-0.037c-0.026-0.028-0.055-0.049-0.082-0.075    c-0.008-0.009-0.016-0.021-0.023-0.03c-0.025-0.027-0.055-0.047-0.08-0.072c-0.009-0.01-0.018-0.023-0.025-0.033    c-0.026-0.027-0.055-0.047-0.08-0.072c-0.01-0.011-0.018-0.023-0.026-0.033c-0.026-0.027-0.054-0.047-0.079-0.072    c-0.01-0.012-0.018-0.024-0.027-0.035c-0.025-0.026-0.054-0.045-0.08-0.071c-0.009-0.011-0.017-0.024-0.025-0.034    c-0.027-0.027-0.055-0.048-0.082-0.074c-0.01-0.01-0.016-0.021-0.024-0.031c-0.026-0.026-0.054-0.047-0.079-0.072    c-0.011-0.01-0.018-0.023-0.027-0.033c-0.025-0.027-0.053-0.047-0.079-0.072c-0.009-0.011-0.017-0.023-0.026-0.033    c-0.025-0.027-0.054-0.047-0.08-0.072c-0.009-0.012-0.017-0.023-0.025-0.034c-0.026-0.026-0.055-0.046-0.08-0.071    c-0.01-0.012-0.018-0.025-0.026-0.035c-0.026-0.026-0.053-0.045-0.079-0.071c-0.01-0.011-0.018-0.024-0.027-0.034    c-0.025-0.027-0.054-0.046-0.08-0.072c-0.008-0.011-0.017-0.023-0.025-0.033c-0.025-0.027-0.053-0.047-0.079-0.072    c-0.01-0.012-0.019-0.024-0.026-0.034c-0.027-0.028-0.057-0.048-0.084-0.075c-0.008-0.009-0.015-0.021-0.022-0.029    c-0.026-0.027-0.054-0.047-0.08-0.072c-0.009-0.012-0.017-0.024-0.026-0.034c-0.025-0.027-0.054-0.048-0.08-0.072    c-0.009-0.011-0.017-0.024-0.025-0.034c-0.026-0.027-0.055-0.047-0.08-0.072c-0.01-0.011-0.018-0.023-0.026-0.033    c-0.026-0.027-0.054-0.047-0.079-0.072c-0.01-0.012-0.018-0.023-0.027-0.034c-0.025-0.026-0.053-0.046-0.079-0.071    c-0.009-0.012-0.017-0.024-0.026-0.035c-0.025-0.026-0.054-0.047-0.08-0.071c-0.009-0.011-0.017-0.024-0.025-0.034    c-0.025-0.025-0.051-0.044-0.076-0.068c-0.012-0.013-0.02-0.026-0.029-0.037c-0.027-0.028-0.055-0.049-0.082-0.075    c-0.009-0.009-0.016-0.021-0.023-0.03c-0.026-0.027-0.055-0.047-0.08-0.072c-0.01-0.011-0.018-0.023-0.026-0.033    c-0.026-0.028-0.056-0.049-0.083-0.076c-0.009-0.01-0.016-0.021-0.023-0.03c-0.025-0.026-0.052-0.044-0.076-0.069    c-0.012-0.011-0.02-0.025-0.029-0.037c-0.025-0.026-0.055-0.045-0.08-0.072c-0.009-0.01-0.018-0.023-0.025-0.033    c-0.027-0.027-0.055-0.047-0.08-0.072c-0.01-0.011-0.018-0.023-0.026-0.033c-0.027-0.029-0.056-0.05-0.083-0.076    c-0.01-0.01-0.016-0.021-0.024-0.03c-0.026-0.027-0.053-0.046-0.079-0.072c-0.009-0.01-0.017-0.022-0.025-0.033    c-0.026-0.026-0.055-0.047-0.08-0.071c-0.01-0.012-0.018-0.024-0.026-0.035c-0.026-0.026-0.054-0.045-0.08-0.071    c-0.009-0.011-0.017-0.024-0.026-0.034c-0.024-0.025-0.051-0.045-0.076-0.07c-0.012-0.011-0.02-0.025-0.029-0.037    c-0.027-0.027-0.055-0.047-0.082-0.074c-0.009-0.01-0.016-0.021-0.023-0.03c-0.027-0.028-0.056-0.048-0.082-0.075    c-0.01-0.009-0.017-0.021-0.024-0.029c-0.024-0.026-0.052-0.045-0.077-0.07c-0.011-0.012-0.02-0.026-0.029-0.037    c-0.026-0.027-0.055-0.048-0.082-0.075c-0.008-0.009-0.016-0.021-0.023-0.03c-0.025-0.025-0.053-0.045-0.077-0.069    c-0.011-0.013-0.019-0.026-0.028-0.037c-0.027-0.028-0.056-0.048-0.082-0.075c-0.01-0.009-0.017-0.021-0.024-0.029    c-0.026-0.027-0.054-0.048-0.08-0.072c-0.009-0.012-0.017-0.024-0.026-0.034c-0.025-0.027-0.054-0.046-0.08-0.072    c-0.009-0.011-0.017-0.024-0.025-0.034c-0.026-0.027-0.055-0.047-0.08-0.072c-0.01-0.01-0.018-0.023-0.026-0.033    c-0.026-0.027-0.053-0.047-0.079-0.071c-0.009-0.011-0.017-0.024-0.025-0.034c-0.026-0.027-0.055-0.047-0.08-0.072    c-0.01-0.012-0.018-0.024-0.027-0.035c-0.025-0.026-0.053-0.045-0.079-0.071c-0.01-0.011-0.018-0.024-0.026-0.034    c-0.027-0.027-0.056-0.048-0.082-0.074c-0.01-0.01-0.017-0.021-0.024-0.031c-0.024-0.025-0.051-0.043-0.076-0.068    c-0.011-0.012-0.019-0.025-0.028-0.037c-0.026-0.027-0.055-0.047-0.08-0.072c-0.01-0.011-0.018-0.023-0.026-0.033    c-0.026-0.028-0.056-0.049-0.083-0.076c-0.01-0.01-0.016-0.021-0.023-0.03c-0.025-0.026-0.052-0.044-0.076-0.069    c-0.012-0.012-0.02-0.025-0.029-0.037c-0.027-0.027-0.055-0.047-0.082-0.074c-0.01-0.01-0.016-0.021-0.023-0.03    c-0.025-0.026-0.053-0.045-0.078-0.07c-0.011-0.011-0.019-0.026-0.028-0.036c-0.028-0.029-0.058-0.051-0.087-0.078    c-0.008-0.008-0.014-0.021-0.021-0.027c-0.024-0.026-0.051-0.045-0.075-0.07c-0.012-0.011-0.02-0.025-0.029-0.035    c-0.026-0.027-0.055-0.047-0.08-0.072c-0.01-0.012-0.018-0.024-0.026-0.035c-0.026-0.026-0.053-0.045-0.079-0.071    c-0.01-0.011-0.018-0.024-0.027-0.034c-0.025-0.027-0.053-0.046-0.08-0.072c-0.008-0.011-0.016-0.023-0.025-0.033    c-0.027-0.028-0.055-0.049-0.082-0.075c-0.009-0.009-0.016-0.021-0.023-0.03c-0.026-0.027-0.055-0.047-0.08-0.072    c-0.01-0.011-0.018-0.023-0.026-0.033c-0.026-0.027-0.054-0.047-0.08-0.072c-0.009-0.012-0.017-0.023-0.026-0.034    c-0.024-0.026-0.052-0.045-0.076-0.069c-0.012-0.012-0.02-0.026-0.029-0.037c-0.027-0.028-0.055-0.049-0.082-0.076    c-0.01-0.008-0.016-0.021-0.023-0.029c-0.027-0.027-0.054-0.046-0.08-0.072c-0.096-0.097-0.104-0.109-0.113-0.12    c-0.025-0.026-0.055-0.046-0.08-0.071c-0.009-0.012-0.018-0.024-0.025-0.035c-0.026-0.026-0.054-0.045-0.08-0.071    c-0.01-0.011-0.018-0.024-0.026-0.034c-0.026-0.027-0.056-0.048-0.082-0.074c-0.009-0.01-0.017-0.021-0.024-0.031    c-0.025-0.026-0.054-0.045-0.078-0.071c-0.011-0.011-0.019-0.024-0.027-0.034c-0.025-0.025-0.053-0.045-0.077-0.07    c-0.011-0.012-0.019-0.025-0.028-0.037c-0.027-0.027-0.056-0.047-0.082-0.074c-0.01-0.01-0.017-0.021-0.025-0.03    c-0.024-0.026-0.051-0.044-0.075-0.069c-0.011-0.011-0.019-0.025-0.029-0.037c-0.026-0.027-0.056-0.049-0.083-0.076    c-0.009-0.008-0.016-0.021-0.023-0.029c-0.025-0.026-0.051-0.044-0.076-0.069c-0.012-0.011-0.02-0.026-0.029-0.036    c-0.027-0.029-0.056-0.049-0.083-0.076c-0.009-0.01-0.016-0.021-0.024-0.03c-0.025-0.027-0.053-0.046-0.078-0.072    c-0.01-0.01-0.018-0.022-0.026-0.032c-0.026-0.029-0.056-0.05-0.083-0.076c-0.009-0.01-0.016-0.021-0.023-0.031    c-0.025-0.025-0.052-0.043-0.076-0.068c-0.012-0.012-0.02-0.025-0.029-0.037c-0.027-0.027-0.057-0.049-0.083-0.076    c-0.009-0.009-0.017-0.021-0.024-0.029c-0.024-0.026-0.051-0.045-0.076-0.069c-0.01-0.013-0.019-0.026-0.028-0.037    c-0.026-0.026-0.054-0.047-0.08-0.071c-0.009-0.012-0.017-0.024-0.026-0.035c-0.025-0.026-0.053-0.045-0.078-0.071    c-0.011-0.011-0.019-0.024-0.027-0.034c-0.026-0.027-0.055-0.047-0.08-0.072c-0.01-0.011-0.018-0.023-0.026-0.033    c-0.026-0.028-0.055-0.049-0.081-0.076c-0.01-0.008-0.017-0.021-0.025-0.029c-0.025-0.027-0.053-0.046-0.079-0.073    c-0.009-0.01-0.017-0.024-0.026-0.034c-0.025-0.027-0.054-0.046-0.08-0.073c-0.009-0.01-0.017-0.024-0.025-0.034    c-0.026-0.027-0.055-0.046-0.08-0.073c-0.01-0.01-0.018-0.024-0.026-0.034c-0.026-0.027-0.054-0.046-0.08-0.073    c-0.009-0.01-0.017-0.024-0.026-0.034c-0.024-0.027-0.051-0.045-0.078-0.071c-0.01-0.011-0.018-0.025-0.026-0.035    c-0.026-0.029-0.056-0.048-0.083-0.076c-0.009-0.009-0.016-0.021-0.023-0.031c-0.025-0.027-0.054-0.045-0.078-0.071    c-0.01-0.011-0.019-0.025-0.028-0.036c-0.026-0.028-0.054-0.047-0.081-0.074c-0.01-0.01-0.016-0.023-0.025-0.032    c-0.025-0.027-0.052-0.045-0.076-0.071c-0.012-0.01-0.02-0.025-0.028-0.035c-0.027-0.029-0.056-0.048-0.083-0.076    c-0.01-0.009-0.016-0.022-0.024-0.031c-0.026-0.027-0.053-0.046-0.079-0.073c-0.01-0.01-0.018-0.024-0.027-0.034    c-0.025-0.028-0.053-0.047-0.08-0.074c-0.01-0.01-0.018-0.023-0.025-0.032c-0.023-0.026-0.05-0.043-0.074-0.068    c-0.012-0.012-0.021-0.027-0.031-0.039c-0.026-0.029-0.057-0.049-0.084-0.077c-0.008-0.009-0.015-0.021-0.022-0.029    c-0.024-0.026-0.051-0.044-0.076-0.069c-0.011-0.011-0.019-0.026-0.028-0.037c-0.027-0.029-0.057-0.048-0.084-0.076    c-0.008-0.009-0.016-0.021-0.023-0.031c-0.025-0.028-0.055-0.047-0.081-0.074c-0.009-0.01-0.017-0.023-0.024-0.032    c-0.026-0.028-0.055-0.047-0.082-0.074c-0.008-0.01-0.017-0.023-0.024-0.032c-0.024-0.026-0.05-0.043-0.075-0.068    c-0.011-0.012-0.02-0.027-0.029-0.039c-0.027-0.029-0.057-0.048-0.084-0.076c-0.009-0.009-0.016-0.022-0.023-0.031    c-0.025-0.027-0.053-0.045-0.077-0.071c-0.011-0.011-0.019-0.025-0.028-0.035c-0.025-0.028-0.054-0.047-0.08-0.074    c-0.01-0.01-0.018-0.023-0.025-0.032c-0.026-0.027-0.055-0.046-0.08-0.073c-0.01-0.01-0.018-0.024-0.026-0.034    c-0.026-0.028-0.055-0.048-0.082-0.075c-0.009-0.009-0.016-0.023-0.024-0.032c-0.025-0.026-0.051-0.044-0.076-0.07    c-0.012-0.011-0.02-0.026-0.029-0.037c-0.025-0.028-0.054-0.047-0.081-0.074c-0.009-0.01-0.016-0.023-0.024-0.032    c-0.026-0.027-0.055-0.046-0.08-0.073c-0.01-0.01-0.018-0.024-0.026-0.034c-0.026-0.028-0.054-0.047-0.081-0.074    c-0.009-0.01-0.018-0.023-0.025-0.032c-0.025-0.028-0.054-0.047-0.08-0.074c-0.01-0.01-0.018-0.023-0.025-0.032    c-0.025-0.027-0.053-0.045-0.078-0.071c-0.01-0.011-0.018-0.025-0.027-0.036c-0.026-0.027-0.055-0.046-0.08-0.073    c-0.01-0.01-0.018-0.024-0.026-0.034c-0.026-0.028-0.054-0.047-0.081-0.074c-0.01-0.01-0.018-0.023-0.025-0.032    c-0.025-0.027-0.054-0.046-0.078-0.073c-0.011-0.01-0.019-0.024-0.027-0.034c-0.026-0.028-0.055-0.047-0.081-0.074    c-0.009-0.01-0.017-0.023-0.025-0.032c-0.026-0.027-0.054-0.046-0.079-0.073c-0.01-0.01-0.018-0.024-0.027-0.034    c-0.024-0.027-0.053-0.045-0.077-0.071c-0.011-0.011-0.019-0.025-0.028-0.036c-0.027-0.028-0.055-0.048-0.082-0.075    c-0.009-0.009-0.016-0.021-0.023-0.03c-0.026-0.027-0.053-0.046-0.08-0.072c-0.01-0.01-0.018-0.024-0.026-0.034    c-0.026-0.027-0.054-0.046-0.08-0.073c-0.009-0.01-0.017-0.024-0.026-0.034c-0.025-0.027-0.054-0.046-0.08-0.073    c-0.008-0.01-0.017-0.024-0.025-0.034c-0.025-0.027-0.053-0.045-0.078-0.071c-0.01-0.011-0.02-0.025-0.027-0.036    c-0.026-0.028-0.055-0.047-0.082-0.074c-0.009-0.01-0.017-0.023-0.024-0.032c-0.026-0.027-0.054-0.046-0.079-0.073    c-0.01-0.01-0.018-0.024-0.027-0.034c-0.025-0.028-0.054-0.047-0.08-0.074c-0.01-0.01-0.018-0.023-0.025-0.032    c-0.025-0.027-0.053-0.045-0.077-0.071c-0.011-0.011-0.019-0.025-0.028-0.035c-0.025-0.027-0.054-0.046-0.08-0.073    c-0.009-0.01-0.017-0.024-0.025-0.034c-0.025-0.027-0.053-0.045-0.078-0.071c-0.01-0.011-0.02-0.025-0.028-0.036    c-0.026-0.029-0.057-0.049-0.084-0.077c-0.009-0.009-0.015-0.021-0.022-0.029c-0.026-0.027-0.055-0.046-0.08-0.073    c-0.01-0.01-0.018-0.024-0.026-0.034c-0.024-0.027-0.052-0.045-0.077-0.071c-0.011-0.01-0.02-0.025-0.027-0.035    c-0.026-0.027-0.055-0.046-0.08-0.073c-0.01-0.01-0.018-0.024-0.026-0.034c-0.026-0.029-0.056-0.048-0.083-0.076    c-0.009-0.009-0.016-0.022-0.023-0.031c-0.025-0.027-0.053-0.045-0.078-0.071c-0.01-0.01-0.019-0.025-0.027-0.035    c-0.026-0.027-0.055-0.046-0.079-0.073c-0.011-0.01-0.019-0.024-0.026-0.034c-0.027-0.027-0.055-0.046-0.08-0.073    c-0.01-0.01-0.018-0.024-0.026-0.034c-0.026-0.027-0.054-0.046-0.079-0.073c-0.01-0.01-0.018-0.024-0.027-0.034    c-0.025-0.027-0.054-0.046-0.08-0.073c-0.009-0.01-0.017-0.024-0.025-0.034c-0.026-0.027-0.055-0.046-0.079-0.073    c-0.011-0.01-0.019-0.024-0.027-0.034c-0.026-0.028-0.054-0.047-0.081-0.074c-0.009-0.01-0.017-0.023-0.025-0.032    c-0.025-0.027-0.053-0.046-0.078-0.073c-0.01-0.01-0.018-0.024-0.027-0.034c-0.025-0.028-0.055-0.047-0.081-0.074    c-0.009-0.01-0.017-0.023-0.024-0.032c-0.026-0.027-0.055-0.046-0.08-0.073c-0.01-0.01-0.018-0.024-0.026-0.034    c-0.026-0.027-0.054-0.046-0.08-0.073c-0.009-0.01-0.017-0.024-0.026-0.034c-0.025-0.027-0.054-0.046-0.078-0.073    c-0.01-0.01-0.019-0.024-0.027-0.034c-0.026-0.027-0.053-0.046-0.079-0.072c-0.01-0.01-0.019-0.024-0.026-0.034    c-0.027-0.028-0.055-0.047-0.082-0.074c-0.009-0.01-0.016-0.023-0.024-0.032c-0.026-0.027-0.054-0.046-0.08-0.073    c-0.009-0.01-0.017-0.024-0.026-0.034c-0.025-0.028-0.054-0.047-0.08-0.074c-0.01-0.01-0.017-0.023-0.025-0.032    c-0.025-0.027-0.053-0.045-0.077-0.071c-0.011-0.01-0.019-0.025-0.028-0.035c-0.027-0.028-0.055-0.048-0.082-0.075    c-0.009-0.01-0.016-0.023-0.025-0.032c-0.025-0.027-0.053-0.046-0.08-0.073c-0.008-0.01-0.016-0.024-0.025-0.034    c-0.025-0.027-0.054-0.046-0.08-0.073c-0.009-0.01-0.018-0.024-0.025-0.034c-0.026-0.027-0.054-0.046-0.08-0.073    c-0.01-0.01-0.018-0.024-0.026-0.034c-0.026-0.028-0.056-0.048-0.082-0.075c-0.009-0.009-0.017-0.021-0.024-0.03    c-0.023-0.026-0.05-0.043-0.074-0.068c-0.012-0.012-0.021-0.027-0.03-0.039c-0.027-0.029-0.056-0.048-0.083-0.076    c-0.01-0.009-0.016-0.022-0.023-0.031c-0.025-0.027-0.053-0.045-0.078-0.071c-0.011-0.011-0.019-0.025-0.027-0.035    c-0.026-0.027-0.053-0.046-0.079-0.072c-0.011-0.01-0.019-0.024-0.026-0.034c-0.027-0.028-0.055-0.047-0.082-0.074    c-0.009-0.01-0.016-0.023-0.025-0.032c-0.026-0.029-0.055-0.048-0.082-0.076c-0.01-0.009-0.016-0.022-0.024-0.031    c-0.024-0.026-0.05-0.043-0.075-0.068c-0.011-0.012-0.02-0.027-0.029-0.039c-0.026-0.028-0.055-0.047-0.082-0.074    c-0.008-0.01-0.016-0.023-0.024-0.032c-0.026-0.027-0.054-0.046-0.079-0.073c-0.01-0.01-0.018-0.024-0.027-0.034    c-0.025-0.028-0.054-0.047-0.08-0.074c-0.01-0.01-0.018-0.023-0.025-0.032c-0.025-0.028-0.055-0.047-0.081-0.074    c-0.009-0.01-0.017-0.023-0.024-0.032c-0.026-0.027-0.054-0.046-0.08-0.073c-0.01-0.01-0.018-0.024-0.026-0.034    c-0.024-0.027-0.052-0.045-0.078-0.071c-0.01-0.011-0.019-0.025-0.028-0.036c-0.025-0.027-0.053-0.046-0.078-0.072    c-0.011-0.01-0.019-0.024-0.027-0.034c-0.026-0.028-0.055-0.047-0.081-0.074c-0.009-0.01-0.017-0.023-0.024-0.032    c-1.142-1.194-2.421-1.2-3.007-1.271C38.303,21.494,32,21.494,32,21.494s-6.304,0-10.502,0.304    c-0.586,0.07-1.865,0.076-3.006,1.271c-0.9,0.911-1.192,2.978-1.192,2.978s-0.3,2.02-0.3,4.447v3c0,2.428,0.3,4.539,0.3,4.539    s0.292,2.066,1.192,2.979c0.023,0.023,0.049,0.04,0.073,0.063c0.012,0.013,0.021,0.03,0.033,0.042    c0.024,0.025,0.051,0.043,0.076,0.066c0.011,0.012,0.02,0.027,0.031,0.039c0.024,0.025,0.05,0.043,0.074,0.066    c0.012,0.012,0.021,0.027,0.032,0.04c0.024,0.024,0.05,0.042,0.074,0.065c0.012,0.013,0.021,0.028,0.032,0.041    c0.025,0.025,0.052,0.043,0.077,0.067c0.01,0.011,0.019,0.026,0.029,0.037c0.024,0.024,0.05,0.042,0.074,0.065    c0.012,0.013,0.021,0.028,0.032,0.041c0.024,0.024,0.05,0.041,0.074,0.065c0.012,0.013,0.021,0.028,0.032,0.04    c0.024,0.025,0.05,0.042,0.074,0.066c0.012,0.012,0.021,0.027,0.032,0.039c0.023,0.024,0.049,0.041,0.073,0.064    c0.012,0.014,0.021,0.029,0.033,0.042c0.024,0.025,0.05,0.042,0.074,0.066c0.012,0.012,0.021,0.028,0.032,0.04    c0.024,0.025,0.05,0.041,0.074,0.066c0.012,0.012,0.021,0.027,0.032,0.039c0.024,0.025,0.051,0.043,0.076,0.067    c0.011,0.012,0.02,0.026,0.031,0.039c0.024,0.024,0.051,0.043,0.075,0.065c0.011,0.012,0.02,0.027,0.031,0.039    c0.024,0.025,0.05,0.043,0.074,0.066c0.012,0.012,0.021,0.027,0.032,0.04c0.024,0.024,0.051,0.043,0.076,0.067    c0.011,0.012,0.02,0.026,0.031,0.039c0.024,0.024,0.05,0.041,0.074,0.064c0.011,0.012,0.02,0.027,0.032,0.04    c0.023,0.024,0.048,0.041,0.072,0.063c0.012,0.014,0.022,0.03,0.035,0.043c0.024,0.025,0.051,0.043,0.076,0.067    c0.011,0.013,0.02,0.027,0.031,0.039c0.024,0.024,0.05,0.042,0.074,0.065c0.012,0.013,0.021,0.029,0.032,0.041    c0.024,0.024,0.05,0.041,0.075,0.065c0.011,0.013,0.02,0.028,0.032,0.04c0.025,0.026,0.052,0.044,0.077,0.068    c0.011,0.011,0.019,0.025,0.03,0.037c0.024,0.024,0.05,0.041,0.074,0.065c0.012,0.013,0.021,0.028,0.032,0.04    c0.023,0.024,0.049,0.041,0.073,0.064c0.012,0.013,0.021,0.029,0.033,0.042c0.024,0.024,0.051,0.043,0.075,0.067    c0.011,0.01,0.02,0.025,0.031,0.037c0.024,0.025,0.051,0.043,0.076,0.067c0.011,0.012,0.02,0.026,0.031,0.039    c0.024,0.024,0.05,0.042,0.074,0.065c0.012,0.012,0.021,0.028,0.032,0.041c0.024,0.024,0.05,0.041,0.075,0.065    c0.011,0.012,0.02,0.028,0.032,0.04c0.024,0.025,0.05,0.042,0.074,0.064c0.012,0.014,0.021,0.029,0.033,0.043    c0.024,0.024,0.051,0.043,0.076,0.066c0.011,0.012,0.019,0.025,0.03,0.038c0.024,0.024,0.05,0.042,0.074,0.065    c0.012,0.013,0.021,0.028,0.032,0.041c0.024,0.024,0.05,0.041,0.074,0.065c0.012,0.013,0.021,0.028,0.032,0.04    c0.024,0.025,0.051,0.043,0.075,0.066c0.011,0.012,0.02,0.027,0.031,0.039c0.024,0.024,0.05,0.041,0.074,0.065    c0.012,0.013,0.021,0.028,0.032,0.04c0.024,0.025,0.051,0.043,0.076,0.067c0.011,0.012,0.02,0.026,0.031,0.038    c0.024,0.025,0.05,0.043,0.075,0.066c0.011,0.012,0.02,0.028,0.032,0.04c0.024,0.025,0.05,0.042,0.074,0.066    c0.012,0.012,0.021,0.028,0.032,0.04c0.023,0.023,0.049,0.041,0.073,0.064c0.012,0.012,0.021,0.029,0.033,0.041    c0.024,0.025,0.051,0.043,0.076,0.067c0.011,0.012,0.02,0.026,0.031,0.039c0.024,0.024,0.05,0.042,0.074,0.065    c0.012,0.013,0.021,0.028,0.032,0.041c0.023,0.023,0.048,0.039,0.071,0.063c0.012,0.013,0.021,0.029,0.034,0.043    c0.025,0.025,0.053,0.044,0.079,0.068c0.01,0.012,0.018,0.025,0.028,0.037c0.024,0.024,0.05,0.041,0.074,0.065    c0.012,0.013,0.021,0.028,0.032,0.04c0.024,0.025,0.05,0.042,0.074,0.066c0.012,0.012,0.021,0.027,0.032,0.039    c0.024,0.025,0.051,0.043,0.076,0.067c0.011,0.013,0.02,0.027,0.031,0.039c0.023,0.024,0.048,0.04,0.071,0.063    c0.012,0.013,0.021,0.029,0.034,0.043c0.024,0.025,0.05,0.041,0.074,0.065c0.012,0.013,0.021,0.028,0.032,0.04    c0.024,0.025,0.051,0.043,0.076,0.067c0.011,0.012,0.02,0.026,0.031,0.039c0.024,0.024,0.051,0.043,0.075,0.067    c0.011,0.01,0.02,0.025,0.031,0.037c0.023,0.024,0.048,0.041,0.072,0.063c0.012,0.014,0.022,0.03,0.035,0.044    c0.025,0.025,0.052,0.044,0.077,0.068c0.01,0.011,0.019,0.025,0.029,0.037c0.024,0.024,0.051,0.043,0.076,0.066    c0.011,0.012,0.02,0.027,0.031,0.039c0.024,0.025,0.05,0.042,0.075,0.066c0.011,0.012,0.02,0.027,0.032,0.039    c0.023,0.024,0.049,0.041,0.073,0.064c0.012,0.014,0.021,0.029,0.033,0.042c0.024,0.024,0.05,0.042,0.074,0.065    c0.012,0.013,0.021,0.029,0.032,0.041c0.024,0.024,0.05,0.041,0.074,0.065c0.012,0.013,0.021,0.028,0.032,0.04    c0.024,0.025,0.051,0.043,0.075,0.066c0.011,0.013,0.02,0.027,0.031,0.039c0.024,0.024,0.051,0.043,0.076,0.066    c0.011,0.012,0.02,0.027,0.031,0.039c0.024,0.025,0.05,0.042,0.074,0.066c0.012,0.012,0.021,0.027,0.032,0.039    c0.024,0.025,0.05,0.043,0.074,0.066c0.012,0.012,0.021,0.028,0.032,0.041c0.024,0.024,0.05,0.041,0.074,0.065    c0.012,0.012,0.021,0.028,0.032,0.04c0.024,0.025,0.05,0.042,0.074,0.066c0.012,0.012,0.021,0.027,0.032,0.039    c0.023,0.024,0.049,0.041,0.073,0.064c0.012,0.013,0.021,0.029,0.033,0.042c0.024,0.024,0.051,0.043,0.076,0.067    c0.011,0.012,0.02,0.026,0.031,0.039c0.024,0.024,0.051,0.043,0.075,0.065c0.011,0.013,0.02,0.026,0.031,0.039    c0.024,0.024,0.05,0.042,0.074,0.065c0.012,0.013,0.021,0.028,0.032,0.041c0.024,0.024,0.05,0.041,0.074,0.065    c0.012,0.013,0.021,0.028,0.032,0.04c0.024,0.025,0.051,0.043,0.076,0.066c0.011,0.013,0.02,0.027,0.031,0.039    c0.024,0.025,0.05,0.043,0.074,0.066c0.012,0.012,0.021,0.028,0.032,0.04c0.024,0.025,0.05,0.042,0.074,0.065    c0.011,0.013,0.02,0.027,0.032,0.039c0.024,0.025,0.051,0.043,0.076,0.068c0.011,0.012,0.02,0.026,0.031,0.038    c0.023,0.024,0.048,0.041,0.072,0.063c0.012,0.014,0.022,0.031,0.035,0.044c0.024,0.024,0.051,0.043,0.075,0.067    c0.011,0.01,0.02,0.025,0.031,0.037c0.024,0.025,0.051,0.043,0.076,0.067c0.011,0.012,0.02,0.026,0.031,0.039    c0.024,0.024,0.05,0.042,0.074,0.065c0.012,0.013,0.021,0.028,0.032,0.041c0.024,0.024,0.05,0.041,0.074,0.065    c0.012,0.013,0.021,0.028,0.032,0.04c0.024,0.025,0.051,0.043,0.076,0.066c0.011,0.013,0.02,0.027,0.031,0.039    c0.023,0.024,0.048,0.041,0.071,0.063c0.012,0.013,0.021,0.03,0.034,0.043c0.025,0.026,0.052,0.044,0.077,0.067    c0.01,0.013,0.019,0.027,0.029,0.037c0.024,0.025,0.05,0.043,0.074,0.066c0.012,0.012,0.021,0.028,0.032,0.04    c0.024,0.024,0.051,0.043,0.076,0.067c0.011,0.012,0.02,0.027,0.031,0.039c0.023,0.023,0.049,0.041,0.073,0.063    c0.012,0.013,0.021,0.029,0.033,0.042c0.023,0.024,0.049,0.041,0.073,0.064c0.012,0.013,0.021,0.029,0.033,0.042    c0.024,0.024,0.051,0.043,0.076,0.067c0.011,0.012,0.02,0.026,0.031,0.039c0.024,0.024,0.05,0.041,0.074,0.065    c0.012,0.012,0.021,0.028,0.032,0.04c0.025,0.025,0.052,0.044,0.077,0.068c0.01,0.012,0.019,0.025,0.029,0.037    c0.024,0.024,0.05,0.041,0.074,0.065c0.012,0.012,0.021,0.028,0.032,0.04c0.024,0.025,0.05,0.042,0.074,0.066    c0.012,0.012,0.021,0.027,0.032,0.039c0.024,0.025,0.05,0.043,0.074,0.066c0.012,0.012,0.021,0.027,0.032,0.04    c0.024,0.024,0.05,0.042,0.074,0.065c0.012,0.013,0.021,0.028,0.032,0.041c0.024,0.024,0.051,0.043,0.075,0.066    c0.011,0.012,0.02,0.026,0.031,0.038c0.024,0.024,0.049,0.042,0.074,0.065c0.012,0.013,0.021,0.029,0.033,0.041    c0.024,0.025,0.05,0.043,0.074,0.066c0.012,0.012,0.021,0.028,0.032,0.04c0.024,0.025,0.05,0.042,0.074,0.066    c0.012,0.012,0.021,0.028,0.032,0.04c0.024,0.025,0.05,0.042,0.074,0.064c0.011,0.012,0.02,0.028,0.032,0.04    c0.024,0.025,0.051,0.044,0.076,0.067c0.011,0.012,0.02,0.027,0.031,0.039c0.024,0.025,0.051,0.043,0.076,0.066    c0.011,0.012,0.02,0.027,0.031,0.039c0.023,0.024,0.049,0.041,0.073,0.064c0.012,0.013,0.021,0.029,0.033,0.042    c0.023,0.024,0.049,0.041,0.073,0.063c0.012,0.014,0.021,0.03,0.033,0.043c0.025,0.025,0.053,0.045,0.079,0.069    c0.01,0.011,0.018,0.024,0.028,0.035c0.024,0.024,0.049,0.042,0.074,0.065c0.012,0.013,0.021,0.028,0.033,0.041    c0.024,0.025,0.05,0.043,0.074,0.065c0.011,0.013,0.02,0.028,0.032,0.04c0.024,0.025,0.05,0.042,0.074,0.066    c0.012,0.012,0.021,0.027,0.032,0.039c0.024,0.025,0.05,0.043,0.074,0.066c0.012,0.012,0.021,0.028,0.032,0.04    c0.024,0.024,0.051,0.043,0.076,0.067c0.011,0.012,0.02,0.027,0.031,0.039c0.023,0.023,0.049,0.041,0.073,0.063    c0.012,0.013,0.021,0.03,0.033,0.042c0.025,0.026,0.052,0.045,0.077,0.068c0.01,0.011,0.019,0.025,0.029,0.037    c0.023,0.023,0.048,0.041,0.072,0.063c0.012,0.014,0.022,0.031,0.035,0.045c0.025,0.025,0.052,0.043,0.077,0.067    c0.01,0.012,0.019,0.026,0.029,0.037c0.024,0.024,0.05,0.042,0.075,0.065c0.011,0.012,0.02,0.028,0.032,0.041    c0.024,0.024,0.05,0.041,0.075,0.065c0.011,0.012,0.02,0.028,0.032,0.04c0.024,0.025,0.05,0.042,0.074,0.066    c0.012,0.012,0.021,0.027,0.032,0.039c0.024,0.025,0.051,0.043,0.076,0.067c0.011,0.013,0.02,0.026,0.031,0.039    c0.024,0.024,0.051,0.043,0.075,0.067c0.011,0.011,0.02,0.025,0.031,0.037c0.022,0.023,0.047,0.041,0.07,0.063    c0.013,0.015,0.022,0.032,0.036,0.045c0.025,0.026,0.053,0.045,0.079,0.069c0.01,0.011,0.018,0.025,0.028,0.035    c0.023,0.024,0.048,0.041,0.072,0.063c0.012,0.015,0.022,0.031,0.035,0.044c0.025,0.026,0.052,0.044,0.077,0.068    c0.01,0.011,0.019,0.025,0.029,0.037c0.024,0.025,0.05,0.041,0.074,0.066c0.012,0.012,0.021,0.027,0.032,0.039    c0.024,0.025,0.05,0.043,0.074,0.066c0.012,0.012,0.021,0.027,0.032,0.04c0.024,0.024,0.05,0.042,0.074,0.065    c0.012,0.012,0.021,0.028,0.032,0.041c0.023,0.023,0.049,0.041,0.073,0.063c0.012,0.013,0.021,0.03,0.033,0.042    c0.025,0.025,0.052,0.044,0.077,0.068c0.01,0.012,0.019,0.025,0.029,0.037c0.024,0.024,0.05,0.041,0.074,0.065    c0.012,0.013,0.021,0.028,0.032,0.04c0.023,0.023,0.048,0.041,0.072,0.064c0.013,0.013,0.022,0.029,0.035,0.043    c0.025,0.025,0.053,0.043,0.079,0.068c0.01,0.012,0.018,0.025,0.028,0.036c0.023,0.024,0.048,0.04,0.071,0.063    c0.012,0.013,0.021,0.029,0.034,0.043c0.024,0.024,0.05,0.041,0.074,0.065c0.012,0.013,0.021,0.028,0.032,0.04    c0.025,0.026,0.052,0.044,0.078,0.069c0.011,0.011,0.019,0.026,0.03,0.036c0.024,0.025,0.051,0.043,0.075,0.068    c0.011,0.01,0.02,0.025,0.031,0.037c0.023,0.024,0.049,0.041,0.073,0.064c0.012,0.013,0.021,0.029,0.033,0.042    c0.024,0.024,0.051,0.043,0.076,0.067c0.011,0.012,0.02,0.026,0.031,0.039c0.024,0.024,0.051,0.043,0.076,0.066    c0.012,0.012,0.021,0.027,0.03,0.039c0.023,0.023,0.049,0.04,0.072,0.063c0.012,0.014,0.021,0.03,0.033,0.043    c0.023,0.026,0.053,0.045,0.077,0.068c0.011,0.012,0.019,0.025,0.028,0.037c0.023,0.023,0.05,0.041,0.072,0.064    c0.012,0.013,0.021,0.029,0.034,0.043c0.024,0.024,0.05,0.041,0.074,0.065c0.013,0.013,0.021,0.028,0.032,0.04    c0.023,0.025,0.05,0.042,0.074,0.066c0.012,0.012,0.021,0.027,0.031,0.039c0.024,0.026,0.053,0.045,0.077,0.068    c0.011,0.012,0.019,0.026,0.029,0.037c0.024,0.025,0.05,0.042,0.073,0.066c0.013,0.012,0.021,0.027,0.033,0.039    c0.023,0.025,0.049,0.043,0.073,0.066c0.013,0.012,0.021,0.028,0.032,0.04c0.023,0.025,0.05,0.042,0.074,0.066    c0.012,0.012,0.021,0.028,0.031,0.04c0.024,0.025,0.051,0.042,0.074,0.066c0.012,0.012,0.021,0.027,0.032,0.039    c0.024,0.026,0.052,0.045,0.077,0.068c0.01,0.011,0.02,0.025,0.029,0.037c0.022,0.023,0.049,0.041,0.072,0.063    c0.012,0.014,0.021,0.031,0.033,0.045c0.023,0.025,0.053,0.043,0.077,0.067c0.011,0.013,0.019,0.026,0.028,0.037    c0.023,0.024,0.049,0.04,0.072,0.063c0.012,0.012,0.021,0.029,0.033,0.043c0.025,0.025,0.053,0.043,0.078,0.068    c0.01,0.012,0.02,0.025,0.029,0.037c0.023,0.025,0.05,0.042,0.074,0.066c0.012,0.012,0.021,0.027,0.031,0.039    c0.024,0.025,0.051,0.043,0.074,0.066c0.012,0.012,0.021,0.028,0.032,0.04c0.022,0.024,0.05,0.042,0.073,0.065    c0.012,0.012,0.021,0.027,0.031,0.039c0.023,0.024,0.049,0.041,0.072,0.064c0.012,0.014,0.021,0.03,0.034,0.043    c0.024,0.026,0.052,0.044,0.077,0.068c0.011,0.011,0.019,0.025,0.029,0.037c0.024,0.025,0.051,0.043,0.076,0.068    c0.012,0.012,0.021,0.026,0.03,0.037c0.022,0.024,0.048,0.04,0.071,0.063c0.012,0.014,0.021,0.031,0.033,0.044    c0.025,0.026,0.054,0.044,0.078,0.069c0.01,0.01,0.02,0.025,0.029,0.037c0.023,0.023,0.048,0.039,0.071,0.063    c0.012,0.013,0.021,0.029,0.034,0.043c0.023,0.025,0.05,0.042,0.074,0.066c0.012,0.012,0.021,0.027,0.031,0.039    c0.023,0.026,0.053,0.045,0.077,0.068c0.011,0.012,0.019,0.025,0.028,0.037c0.025,0.025,0.051,0.042,0.074,0.066    c0.013,0.012,0.021,0.027,0.032,0.039c0.023,0.024,0.05,0.041,0.072,0.063c0.013,0.015,0.021,0.03,0.034,0.044    c0.025,0.027,0.054,0.045,0.08,0.07c0.01,0.012,0.018,0.025,0.027,0.035c0.022,0.023,0.047,0.039,0.07,0.063    c0.012,0.014,0.021,0.03,0.034,0.043c0.024,0.025,0.05,0.042,0.073,0.066c0.013,0.012,0.021,0.027,0.033,0.039    c0.023,0.026,0.051,0.045,0.076,0.068c0.012,0.012,0.02,0.026,0.029,0.037c0.023,0.023,0.049,0.041,0.072,0.064    c0.012,0.013,0.021,0.029,0.033,0.043c0.024,0.025,0.051,0.041,0.074,0.066c0.012,0.012,0.021,0.027,0.032,0.039    c0.024,0.026,0.052,0.045,0.077,0.068c0.011,0.012,0.02,0.025,0.029,0.037c0.023,0.025,0.05,0.042,0.074,0.066    c0.012,0.012,0.021,0.027,0.031,0.039c0.023,0.025,0.051,0.043,0.074,0.066c0.012,0.012,0.021,0.027,0.031,0.04    c0.025,0.024,0.051,0.042,0.074,0.065c0.013,0.013,0.021,0.028,0.032,0.041c0.024,0.024,0.05,0.041,0.074,0.065    c0.013,0.013,0.021,0.028,0.032,0.04c0.023,0.025,0.05,0.042,0.074,0.066c0.012,0.012,0.021,0.027,0.031,0.039    c0.024,0.026,0.053,0.045,0.077,0.068c0.011,0.012,0.019,0.026,0.029,0.037c0.022,0.023,0.049,0.041,0.071,0.063    c0.013,0.015,0.021,0.031,0.035,0.045c0.022,0.024,0.049,0.041,0.073,0.064c0.011,0.012,0.021,0.028,0.031,0.04    c0.024,0.026,0.053,0.044,0.078,0.069c0.01,0.011,0.019,0.025,0.028,0.037c0.023,0.023,0.049,0.039,0.071,0.063    c0.013,0.014,0.021,0.03,0.034,0.043c0.025,0.026,0.053,0.044,0.078,0.069c0.01,0.011,0.02,0.026,0.029,0.037    c0.023,0.024,0.05,0.042,0.074,0.065c0.012,0.012,0.021,0.028,0.031,0.041c0.023,0.024,0.051,0.041,0.074,0.064    c0.011,0.013,0.02,0.027,0.031,0.04c0.022,0.024,0.049,0.041,0.072,0.063c0.012,0.014,0.021,0.03,0.033,0.043    c0.025,0.027,0.055,0.045,0.08,0.071c0.01,0.011,0.018,0.024,0.027,0.034c0.023,0.023,0.048,0.04,0.07,0.063    c0.013,0.014,0.021,0.03,0.035,0.043c0.024,0.026,0.053,0.045,0.077,0.069c0.011,0.011,0.019,0.026,0.029,0.037    c0.022,0.024,0.048,0.04,0.071,0.063c0.012,0.013,0.021,0.029,0.033,0.043c0.024,0.024,0.051,0.041,0.074,0.065    c0.012,0.013,0.021,0.028,0.032,0.04c0.024,0.025,0.05,0.042,0.073,0.066c0.013,0.012,0.021,0.027,0.033,0.039    c0.023,0.026,0.051,0.045,0.076,0.068c0.012,0.012,0.02,0.026,0.029,0.037c0.023,0.025,0.05,0.042,0.074,0.066    c0.012,0.012,0.021,0.027,0.031,0.039c0.024,0.025,0.051,0.043,0.074,0.066c0.012,0.012,0.021,0.028,0.032,0.04    c0.024,0.025,0.05,0.042,0.074,0.066c0.012,0.012,0.021,0.028,0.032,0.04c0.023,0.025,0.05,0.042,0.074,0.066    c0.012,0.012,0.021,0.027,0.031,0.039c0.024,0.025,0.051,0.043,0.074,0.066c0.012,0.012,0.021,0.027,0.032,0.04    c0.024,0.026,0.052,0.044,0.077,0.067c0.011,0.013,0.019,0.026,0.029,0.037c0.022,0.024,0.049,0.041,0.071,0.063    c0.013,0.014,0.021,0.03,0.034,0.044c0.023,0.025,0.052,0.044,0.076,0.068c0.012,0.012,0.02,0.025,0.029,0.037    c0.024,0.024,0.051,0.041,0.074,0.065c0.012,0.013,0.021,0.028,0.032,0.04c0.022,0.023,0.048,0.04,0.071,0.063    c0.012,0.014,0.021,0.03,0.033,0.043c0.025,0.026,0.053,0.045,0.078,0.069c0.01,0.011,0.02,0.026,0.029,0.037    c0.023,0.024,0.05,0.042,0.074,0.065c0.012,0.013,0.021,0.029,0.031,0.041c0.024,0.024,0.051,0.041,0.074,0.065    c0.012,0.013,0.021,0.028,0.032,0.04c0.024,0.025,0.05,0.042,0.074,0.066c0.012,0.012,0.021,0.027,0.032,0.04    c0.023,0.026,0.052,0.044,0.076,0.067c0.012,0.012,0.02,0.026,0.029,0.037c0.021,0.023,0.047,0.039,0.068,0.062    c0.014,0.015,0.023,0.032,0.037,0.047c0.025,0.026,0.054,0.046,0.08,0.071c0.01,0.011,0.018,0.023,0.027,0.033    c0.022,0.024,0.047,0.041,0.07,0.063c0.012,0.013,0.021,0.03,0.034,0.043c0.024,0.026,0.053,0.044,0.077,0.069    c0.011,0.011,0.02,0.025,0.029,0.037c0.024,0.024,0.051,0.041,0.074,0.065c0.012,0.013,0.021,0.028,0.032,0.04    c0.022,0.023,0.048,0.04,0.071,0.063c0.013,0.014,0.021,0.03,0.033,0.043c0.024,0.026,0.053,0.045,0.078,0.068    c0.01,0.012,0.019,0.026,0.028,0.037c0.024,0.025,0.05,0.042,0.074,0.066c0.012,0.012,0.021,0.027,0.032,0.039    c0.023,0.025,0.049,0.043,0.074,0.066c0.012,0.012,0.021,0.028,0.031,0.04c0.025,0.026,0.053,0.044,0.078,0.069    c0.01,0.011,0.02,0.025,0.029,0.037c0.022,0.023,0.048,0.039,0.07,0.063c0.012,0.014,0.021,0.03,0.034,0.043    c0.024,0.025,0.05,0.043,0.074,0.066c0.012,0.012,0.021,0.027,0.032,0.04c0.023,0.024,0.05,0.042,0.074,0.065    c0.012,0.012,0.021,0.028,0.031,0.041c0.024,0.025,0.053,0.043,0.077,0.067c0.011,0.013,0.019,0.026,0.029,0.037    c0.024,0.024,0.05,0.042,0.073,0.065c0.013,0.013,0.021,0.028,0.033,0.041c0.023,0.024,0.049,0.041,0.073,0.065    c0.013,0.013,0.021,0.028,0.032,0.04c0.023,0.025,0.05,0.042,0.074,0.066c0.012,0.012,0.021,0.027,0.031,0.039    c0.024,0.025,0.051,0.043,0.074,0.066c0.012,0.012,0.021,0.028,0.032,0.04c0.024,0.024,0.05,0.042,0.074,0.065    c0.012,0.013,0.021,0.029,0.032,0.041c0.023,0.024,0.049,0.041,0.074,0.065c0.012,0.013,0.021,0.028,0.031,0.04    c0.023,0.026,0.053,0.044,0.077,0.068c0.011,0.012,0.019,0.025,0.028,0.037c0.023,0.023,0.05,0.041,0.072,0.063    c0.012,0.014,0.021,0.031,0.034,0.044c0.024,0.026,0.052,0.044,0.077,0.068c0.012,0.012,0.02,0.026,0.029,0.037    c0.023,0.024,0.05,0.042,0.074,0.065c0.012,0.012,0.021,0.028,0.031,0.041c0.024,0.024,0.051,0.041,0.074,0.065    c0.012,0.012,0.021,0.028,0.032,0.04c0.024,0.025,0.05,0.042,0.073,0.066c0.013,0.012,0.021,0.027,0.033,0.039    c0.023,0.025,0.049,0.043,0.073,0.066c0.013,0.012,0.021,0.027,0.032,0.04c0.023,0.024,0.05,0.042,0.074,0.065    c0.012,0.013,0.021,0.028,0.031,0.041c0.023,0.023,0.051,0.041,0.073,0.064c0.013,0.012,0.021,0.028,0.032,0.04    c0.023,0.024,0.05,0.042,0.074,0.065c0.012,0.013,0.021,0.029,0.031,0.041c0.025,0.025,0.054,0.043,0.078,0.068    c0.01,0.012,0.02,0.026,0.029,0.037c0.023,0.023,0.048,0.04,0.071,0.063c0.012,0.014,0.021,0.031,0.034,0.043    c0.024,0.027,0.053,0.045,0.078,0.07c0.01,0.01,0.019,0.025,0.028,0.036c0.022,0.024,0.048,0.04,0.071,0.063    c0.013,0.013,0.021,0.029,0.033,0.043c0.025,0.025,0.053,0.044,0.078,0.068c0.011,0.012,0.019,0.025,0.028,0.037    c0.023,0.023,0.05,0.041,0.072,0.063c0.012,0.013,0.021,0.03,0.034,0.043c0.023,0.026,0.052,0.044,0.076,0.067    c0.012,0.013,0.02,0.026,0.029,0.037c0.024,0.025,0.051,0.043,0.074,0.066c0.012,0.012,0.021,0.027,0.032,0.04    c0.024,0.024,0.05,0.042,0.073,0.065c0.013,0.013,0.021,0.028,0.033,0.041c0.023,0.024,0.049,0.041,0.073,0.065    c0.013,0.013,0.021,0.028,0.032,0.04c0.023,0.025,0.05,0.042,0.074,0.066c0.012,0.012,0.021,0.027,0.031,0.039    c0.024,0.025,0.051,0.043,0.074,0.066c0.012,0.012,0.021,0.028,0.032,0.04c0.024,0.026,0.052,0.044,0.077,0.068    c0.011,0.011,0.02,0.026,0.029,0.036c0.023,0.025,0.05,0.043,0.074,0.066c0.012,0.012,0.021,0.028,0.031,0.04    c0.023,0.025,0.051,0.042,0.074,0.066c0.012,0.012,0.021,0.028,0.031,0.04c0.025,0.025,0.051,0.042,0.074,0.066    c0.013,0.012,0.021,0.027,0.032,0.039c0.024,0.025,0.05,0.043,0.074,0.066c0.013,0.012,0.021,0.027,0.032,0.04    c0.023,0.024,0.05,0.042,0.074,0.065c0.012,0.012,0.021,0.028,0.031,0.041c0.024,0.024,0.051,0.041,0.074,0.065    c0.012,0.012,0.021,0.028,0.032,0.04c0.024,0.025,0.05,0.042,0.073,0.066c0.013,0.012,0.021,0.027,0.033,0.039    c0.023,0.026,0.051,0.045,0.076,0.068c0.012,0.012,0.02,0.025,0.029,0.037c0.023,0.025,0.05,0.042,0.074,0.066    c0.012,0.012,0.021,0.027,0.031,0.039c0.023,0.024,0.049,0.041,0.071,0.063c0.013,0.013,0.021,0.03,0.034,0.043    c0.025,0.026,0.053,0.044,0.077,0.069c0.011,0.011,0.021,0.025,0.03,0.037c0.022,0.023,0.048,0.039,0.07,0.063    c0.012,0.014,0.021,0.03,0.034,0.043c0.024,0.027,0.054,0.045,0.08,0.071c0.011,0.01,0.019,0.024,0.026,0.034    c0.023,0.023,0.05,0.041,0.072,0.063c0.012,0.013,0.021,0.03,0.034,0.043c0.022,0.024,0.048,0.04,0.071,0.063    c0.012,0.013,0.021,0.029,0.034,0.043c0.024,0.025,0.052,0.043,0.077,0.068c0.01,0.01,0.019,0.025,0.029,0.037    c0.024,0.025,0.053,0.043,0.076,0.068c0.012,0.011,0.02,0.025,0.03,0.037c0.022,0.023,0.048,0.04,0.071,0.063    c0.012,0.014,0.021,0.03,0.033,0.043c0.024,0.025,0.051,0.043,0.074,0.066c0.012,0.012,0.021,0.027,0.032,0.04    c0.024,0.024,0.05,0.042,0.073,0.065c0.013,0.013,0.021,0.028,0.033,0.041c0.023,0.025,0.051,0.043,0.076,0.067    c0.012,0.013,0.02,0.026,0.029,0.037c0.023,0.024,0.05,0.042,0.074,0.065c0.012,0.013,0.021,0.029,0.031,0.041    c0.023,0.023,0.049,0.041,0.072,0.063c0.012,0.013,0.021,0.03,0.034,0.043c0.024,0.026,0.052,0.044,0.077,0.068    c0.011,0.011,0.02,0.026,0.029,0.036c0.023,0.025,0.05,0.043,0.074,0.066c0.012,0.012,0.021,0.028,0.031,0.04    c0.024,0.025,0.051,0.042,0.074,0.066c0.012,0.012,0.021,0.028,0.032,0.04c0.024,0.025,0.05,0.042,0.073,0.066    c0.013,0.012,0.021,0.027,0.033,0.039c0.023,0.025,0.049,0.043,0.073,0.066c0.013,0.012,0.021,0.027,0.032,0.04    c0.023,0.024,0.05,0.042,0.074,0.065c0.012,0.013,0.021,0.028,0.031,0.041c0.024,0.025,0.053,0.043,0.077,0.067    c0.011,0.011,0.019,0.026,0.029,0.037c0.024,0.024,0.05,0.042,0.073,0.065c0.013,0.013,0.021,0.028,0.033,0.041    c0.023,0.024,0.049,0.041,0.073,0.065c0.013,0.013,0.021,0.028,0.032,0.04c0.023,0.025,0.05,0.042,0.074,0.066    c0.012,0.012,0.021,0.027,0.031,0.039c0.024,0.025,0.051,0.043,0.074,0.066c0.012,0.012,0.021,0.028,0.032,0.04    c0.024,0.025,0.05,0.042,0.074,0.065c0.012,0.013,0.021,0.029,0.032,0.041c0.023,0.025,0.05,0.041,0.074,0.065    c0.012,0.013,0.021,0.028,0.031,0.04c0.024,0.025,0.051,0.042,0.074,0.066c0.012,0.012,0.021,0.027,0.032,0.04    c0.024,0.026,0.052,0.043,0.077,0.067c0.01,0.012,0.019,0.026,0.029,0.037c0.023,0.025,0.049,0.043,0.073,0.066    c0.013,0.012,0.021,0.027,0.032,0.04c0.023,0.024,0.05,0.042,0.074,0.065c0.012,0.012,0.021,0.028,0.031,0.041    c0.023,0.023,0.049,0.039,0.071,0.063c0.013,0.013,0.021,0.029,0.034,0.043c0.025,0.025,0.053,0.044,0.077,0.068    c0.011,0.012,0.02,0.026,0.03,0.037c0.023,0.026,0.051,0.045,0.076,0.068c0.012,0.012,0.02,0.026,0.029,0.037    c0.021,0.023,0.047,0.039,0.068,0.063c0.014,0.014,0.022,0.031,0.037,0.045c0.023,0.025,0.049,0.043,0.074,0.066    c0.012,0.012,0.021,0.028,0.031,0.04c0.023,0.026,0.053,0.044,0.077,0.068c0.011,0.011,0.019,0.026,0.028,0.036    c0.024,0.025,0.051,0.043,0.074,0.066c0.012,0.012,0.021,0.028,0.032,0.04c0.024,0.025,0.05,0.042,0.074,0.066    c0.012,0.012,0.021,0.028,0.032,0.04c0.023,0.025,0.05,0.042,0.074,0.066c0.012,0.012,0.021,0.027,0.031,0.039    c0.024,0.025,0.051,0.043,0.074,0.066c0.012,0.012,0.021,0.027,0.032,0.04c0.024,0.026,0.052,0.044,0.077,0.067    c0.011,0.012,0.019,0.026,0.029,0.037c0.023,0.025,0.049,0.043,0.073,0.066c0.013,0.012,0.021,0.027,0.032,0.04    c0.023,0.024,0.05,0.042,0.074,0.065c0.012,0.013,0.021,0.028,0.031,0.041c0.024,0.024,0.051,0.041,0.074,0.065    c0.012,0.013,0.021,0.028,0.032,0.04c0.024,0.025,0.05,0.042,0.074,0.066c0.012,0.012,0.021,0.027,0.032,0.039    c1.141,1.195,2.64,1.158,3.308,1.283c2.399,0.229,10.2,0.2,10.2,0.2s6.303,0.091,10.502-0.213    c0.586-0.069,1.865-0.075,3.006-1.271c0.898-0.91,1.191-2.979,1.191-2.979s0.301-2.109,0.301-4.537v-3.002    C79.029,60.066,78.729,58.047,78.729,58.047z" enable-background="new    " fill="url(#SVGID_3_)" opacity="0.2"/></g></g><g id="_x5B____x3E___x5D__1_"><g><path d="M46.699,26.047c0,0-0.293-2.067-1.191-2.979c-1.141-1.194-2.42-1.2-3.006-1.271    C38.303,21.494,32,21.494,32,21.494s-6.304,0-10.502,0.304c-0.586,0.07-1.865,0.076-3.006,1.271    c-0.9,0.911-1.192,2.978-1.192,2.978s-0.3,2.02-0.3,4.447v3c0,2.428,0.3,4.539,0.3,4.539s0.292,2.066,1.192,2.979    c1.141,1.194,2.64,1.157,3.308,1.282c2.4,0.229,10.2,0.2,10.2,0.2s6.303,0.091,10.502-0.213c0.586-0.069,1.865-0.075,3.006-1.271    c0.898-0.91,1.191-2.978,1.191-2.978S47,35.923,47,33.496v-3.002C47,28.066,46.699,26.047,46.699,26.047z M28,36.001v-8l8,4    L28,36.001z" fill="#FFFFFF"/></g></g></svg>