<svg width="1400" height="980" xmlns="http://www.w3.org/2000/svg">
 <style type="text/css">.st0{fill:#F7DCCF;}
	.st1{opacity:0.3;fill:#B4AEA8;}
	.st2{fill:#CE324A;}
	.st3{fill:#C0304D;}
	.st4{fill:#EC7589;}
	.st5{fill:#FBFDFD;}
	.st6{fill:#070807;}
	.st7{fill:#58595B;}
	.st8{fill:#F15951;}
	.st9{fill:#4A3B3C;}
	.st10{fill:#F9ED32;}
	.st11{fill:#F8ECA4;}
	.st12{fill:#F7941E;}
	.st13{fill:#D1D3D4;}
	.st14{fill:#E3E3E3;}
	.st15{fill:#DA3926;}
	.st16{fill:#F2C333;}
	.st17{fill:#E5B631;}
	.st18{fill:#E6E7E8;}
	.st19{fill:#CA2C2D;}
	.st20{fill:#0D9F5F;}
	.st21{fill:#0D9956;}
	.st22{fill:#979C9C;}
	.st23{fill:#A7A9AC;}
	.st24{fill:#8D5139;}
	.st25{fill:#262626;}
	.st26{opacity:0.1;fill:#59595A;}
	.st27{fill:#FFFFFF;}
	.st28{font-family:'OpenSans-Light';}
	.st29{font-size:37.4317px;}
	.st30{letter-spacing:3;}
	.st31{fill:#1B1B1C;}
	.st32{fill:#3F3233;}
	.st33{fill:#352A2C;}
	.st34{fill:#FBB040;}
	.st35{fill:#EDA23D;}</style>

 <g>
  <title>background</title>
  <rect fill="#0f0e0e" id="canvas_background" height="982" width="1402" y="-1" x="-1"/>
 </g>
 <g>
  <title>Layer 1</title>
  <line stroke-linecap="null" stroke-linejoin="null" id="svg_4" y2="436" x2="401.5" y1="132" x1="89.5" stroke-opacity="null" stroke-width="null" stroke="null" fill="none"/>
  <g stroke="null" id="XMLID_851_">
   <path stroke="null" fill="#000000" d="m928.702056,835.171393l-250.709351,0c-2.296073,-5.665899 -7.762915,-9.665358 -14.104451,-9.665358l-452.217128,0c-6.341536,0 -11.917714,3.999458 -14.104451,9.665358l-151.75952,0c-8.418936,0 -15.307156,6.999052 -15.307156,15.55345l0,4.221651c0,8.554397 6.88822,15.55345 15.307156,15.55345l209.598703,0c6.341536,0 11.917714,-3.999458 14.104451,-9.665358l265.360486,0c2.296073,5.665899 7.762915,9.665358 14.104451,9.665358l379.617473,0c8.418936,0 15.307156,-6.999052 15.307156,-15.55345l0,-4.221651c0.109337,-8.554397 -6.669547,-15.55345 -15.197819,-15.55345z" class="st1" id="XMLID_822_"/>
   <g stroke="null" id="XMLID_284_">
    <path stroke="null" fill="#000000" d="m497.368263,157.929762c-18.587261,0 -37.065185,0 -55.652446,0c-41.657332,0 -78.175833,-15.775642 -104.635346,-41.216641c-0.218674,0 -0.546684,0 -0.765358,0c-7.653578,98.208924 -29.30227,195.751272 -57.511172,292.404851c-16.072514,53.770497 -5.466841,106.207841 28.97426,148.646539c34.003754,41.883218 91.842937,73.656693 161.818508,73.434501c0,0 0,0 0,0c69.866234,0.222192 127.705417,-31.551283 161.818508,-73.434501c34.441101,-42.438698 45.046774,-94.876042 28.97426,-148.646539c-28.318239,-96.653579 -49.857594,-194.195927 -57.511172,-292.404851c-0.218674,0 -0.546684,0 -0.765358,0c-26.459513,25.441 -63.087351,41.216641 -104.744683,41.216641z" class="st2" id="XMLID_452_"/>
    <path stroke="null" fill="#000000" d="m550.505962,210.922587c-43.188048,0 -78.394507,34.217589 -80.909254,77.433959c-2.514747,-43.21637 -37.721206,-77.433959 -80.909254,-77.433959c-44.8281,0 -81.127928,36.883895 -81.127928,82.433283c0,45.549388 36.299827,82.433283 81.127928,82.433283c43.188048,0 78.394507,-34.217589 80.909254,-77.433959c2.514747,43.21637 37.721206,77.433959 80.909254,77.433959c44.8281,0 81.127928,-36.883895 81.127928,-82.433283c0,-45.549388 -36.299827,-82.433283 -81.127928,-82.433283z" class="st3" id="XMLID_451_"/>
    <circle stroke="null" fill="#000000" r="72.834808" cy="283.468319" cx="385.73536" class="st4" id="XMLID_450_"/>
    <circle stroke="null" fill="#000000" r="72.834808" cy="283.468319" cx="553.458057" class="st4" id="XMLID_449_"/>
    <circle stroke="null" fill="#000000" r="58.896076" cy="283.468319" cx="553.458057" class="st5" id="XMLID_447_"/>
    <circle stroke="null" fill="#000000" r="24.736372" cy="306.020821" cx="537.49488" class="st6" id="XMLID_446_"/>
    <circle stroke="null" fill="#000000" r="7.361996" cy="295.133407" cx="537.49488" class="st7" id="XMLID_445_"/>
    <circle stroke="null" fill="#000000" r="58.896076" cy="283.468319" cx="384.970002" class="st5" id="XMLID_444_"/>
    <circle stroke="null" fill="#000000" r="24.736359" cy="305.687533" cx="401.26119" class="st6" id="XMLID_443_"/>
    <circle stroke="null" fill="#000000" r="7.36201" cy="295.133407" cx="401.26119" class="st7" id="XMLID_442_"/>
    <path stroke="null" fill="#000000" d="m566.687813,442.668985c6.997557,-31.106899 15.744503,-54.103785 25.475481,-70.101619c-13.776441,14.997969 -26.459513,42.327602 -35.86248,84.099724c-12.355062,54.992554 -2.0774,122.761155 4.264136,154.979015c4.045463,-1.888633 8.090925,-3.888362 12.027051,-5.999188c-5.904189,-27.218537 -19.461956,-102.763863 -5.904189,-162.977932z" class="st3" id="XMLID_289_"/>
    <path stroke="null" fill="#000000" d="m382.892602,456.778186c-9.402967,-41.661026 -22.08604,-68.990658 -35.753143,-83.988627c9.621641,15.997834 18.477924,38.99472 25.366145,69.990523c13.44843,60.214069 -0.109337,135.648299 -5.904189,163.089028c0.765358,0.444384 1.530716,0.777672 2.296073,1.222057c0.656021,0.333288 1.421379,0.666576 2.0774,1.110961c1.093368,0.55548 2.186737,1.110961 3.280105,1.666441c0.765358,0.333288 1.530716,0.666576 2.296073,1.110961c0.656021,0.333288 1.421379,0.666576 2.0774,0.999865c6.341536,-32.440052 16.509861,-100.208653 4.264136,-155.201207z" class="st3" id="XMLID_485_"/>
    <g stroke="null" id="XMLID_422_">
     <path stroke="null" fill="#000000" d="m530.278649,422.116212c8.856283,0 17.60323,-3.332882 26.350176,-10.109742c1.093368,-0.777672 1.202705,-2.333017 0.437347,-3.332882c-0.765358,-1.110961 -2.296073,-1.222057 -3.280105,-0.444384c-15.85384,12.220567 -31.270333,12.220567 -47.124174,0c-1.093368,-0.777672 -2.514747,-0.55548 -3.280105,0.444384c-0.765358,1.110961 -0.546684,2.55521 0.437347,3.332882c8.746946,6.77686 17.60323,10.109742 26.459513,10.109742z" class="st3" id="XMLID_438_"/>
     <path stroke="null" fill="#000000" d="m467.847319,422.116212c8.856283,0 17.60323,-3.332882 26.350176,-10.109742c1.093368,-0.777672 1.202705,-2.333017 0.437347,-3.332882c-0.765358,-1.110961 -2.296073,-1.222057 -3.280105,-0.444384c-15.85384,12.220567 -31.270333,12.220567 -47.124174,0c-1.093368,-0.777672 -2.514747,-0.55548 -3.280105,0.444384c-0.765358,1.110961 -0.546684,2.55521 0.437347,3.332882c8.856283,6.77686 17.60323,10.109742 26.459513,10.109742z" class="st3" id="XMLID_437_"/>
     <path stroke="null" fill="#000000" d="m405.415989,422.116212c8.856283,0 17.60323,-3.332882 26.350176,-10.109742c1.093368,-0.777672 1.202705,-2.333017 0.437347,-3.332882c-0.765358,-1.110961 -2.296073,-1.222057 -3.280105,-0.444384c-15.85384,12.220567 -31.270333,12.220567 -47.124174,0c-1.093368,-0.777672 -2.514747,-0.55548 -3.280105,0.444384c-0.765358,1.110961 -0.546684,2.55521 0.437347,3.332882c8.856283,6.77686 17.712566,10.109742 26.459513,10.109742z" class="st3" id="XMLID_436_"/>
     <path stroke="null" fill="#000000" d="m534.542785,452.001055c-0.765358,1.110961 -0.546684,2.55521 0.437347,3.332882c8.746946,6.77686 17.60323,10.109742 26.350176,10.109742c8.856283,0 17.60323,-3.332882 26.350176,-10.109742c1.093368,-0.777672 1.202705,-2.333017 0.437347,-3.332882c-0.765358,-1.110961 -2.296073,-1.222057 -3.280105,-0.444384c-15.85384,12.220567 -31.270333,12.220567 -47.124174,0c-0.874695,-0.777672 -2.40541,-0.666576 -3.170768,0.444384z" class="st3" id="XMLID_435_"/>
     <path stroke="null" fill="#000000" d="m472.220792,452.001055c-0.765358,1.110961 -0.546684,2.55521 0.437347,3.332882c8.746946,6.77686 17.60323,10.109742 26.350176,10.109742c8.856283,0 17.60323,-3.332882 26.350176,-10.109742c1.093368,-0.777672 1.202705,-2.333017 0.437347,-3.332882c-0.765358,-1.110961 -2.296073,-1.222057 -3.280105,-0.444384c-15.85384,12.220567 -31.270333,12.220567 -47.124174,0c-0.984031,-0.777672 -2.40541,-0.666576 -3.170768,0.444384z" class="st3" id="XMLID_434_"/>
     <path stroke="null" fill="#000000" d="m409.789462,452.001055c-0.765358,1.110961 -0.546684,2.55521 0.437347,3.332882c8.746946,6.77686 17.60323,10.109742 26.350176,10.109742c8.856283,0 17.60323,-3.332882 26.350176,-10.109742c1.093368,-0.777672 1.202705,-2.333017 0.437347,-3.332882c-0.765358,-1.110961 -2.296073,-1.222057 -3.280105,-0.444384c-15.85384,12.220567 -31.270333,12.220567 -47.124174,0c-0.874695,-0.777672 -2.40541,-0.666576 -3.170768,0.444384z" class="st3" id="XMLID_433_"/>
     <path stroke="null" fill="#000000" d="m374.254993,465.443679c8.856283,0 17.60323,-3.332882 26.350176,-10.109742c1.093368,-0.777672 1.202705,-2.333017 0.437347,-3.332882c-0.765358,-1.110961 -2.296073,-1.222057 -3.280105,-0.444384c-15.85384,12.220567 -31.270333,12.220567 -47.124174,0c-1.093368,-0.777672 -2.514747,-0.55548 -3.280105,0.444384c-0.765358,1.110961 -0.546684,2.55521 0.437347,3.332882c8.856283,6.77686 17.60323,10.109742 26.459513,10.109742z" class="st3" id="XMLID_432_"/>
     <path stroke="null" fill="#000000" d="m559.034235,495.328521c-0.765358,-1.110961 -2.296073,-1.222057 -3.280105,-0.444384c-15.85384,12.220567 -31.270333,12.220567 -47.124174,0c-1.093368,-0.777672 -2.514747,-0.55548 -3.280105,0.444384c-0.765358,1.110961 -0.546684,2.55521 0.437347,3.332882c8.746946,6.77686 17.60323,10.109742 26.350176,10.109742c8.856283,0 17.60323,-3.332882 26.350176,-10.109742c1.202705,-0.777672 1.312042,-2.333017 0.546684,-3.332882z" class="st3" id="XMLID_431_"/>
     <path stroke="null" fill="#000000" d="m496.712242,495.328521c-0.765358,-1.110961 -2.296073,-1.222057 -3.280105,-0.444384c-15.85384,12.220567 -31.270333,12.220567 -47.124174,0c-1.093368,-0.777672 -2.514747,-0.55548 -3.280105,0.444384c-0.765358,1.110961 -0.546684,2.55521 0.437347,3.332882c8.746946,6.77686 17.60323,10.109742 26.350176,10.109742c8.856283,0 17.60323,-3.332882 26.350176,-10.109742c1.093368,-0.777672 1.312042,-2.333017 0.546684,-3.332882z" class="st3" id="XMLID_429_"/>
     <path stroke="null" fill="#000000" d="m434.280912,495.328521c-0.765358,-1.110961 -2.296073,-1.222057 -3.280105,-0.444384c-15.85384,12.220567 -31.270333,12.220567 -47.124174,0c-1.093368,-0.777672 -2.514747,-0.55548 -3.280105,0.444384c-0.765358,1.110961 -0.546684,2.55521 0.437347,3.332882c8.746946,6.77686 17.60323,10.109742 26.350176,10.109742c8.856283,0 17.60323,-3.332882 26.350176,-10.109742c1.093368,-0.777672 1.312042,-2.333017 0.546684,-3.332882z" class="st3" id="XMLID_427_"/>
     <path stroke="null" fill="#000000" d="m584.947064,538.211604c-15.85384,12.220567 -31.270333,12.220567 -47.124174,0c-1.093368,-0.777672 -2.514747,-0.55548 -3.280105,0.444384c-0.765358,1.110961 -0.546684,2.55521 0.437347,3.332882c8.746946,6.77686 17.60323,10.109742 26.350176,10.109742c8.856283,0 17.60323,-3.332882 26.350176,-10.109742c1.093368,-0.777672 1.202705,-2.333017 0.437347,-3.332882c-0.656021,-1.110961 -2.0774,-1.222057 -3.170768,-0.444384z" class="st3" id="XMLID_426_"/>
     <path stroke="null" fill="#000000" d="m522.625071,538.211604c-15.85384,12.220567 -31.270333,12.220567 -47.124174,0c-1.093368,-0.777672 -2.514747,-0.55548 -3.280105,0.444384c-0.765358,1.110961 -0.546684,2.55521 0.437347,3.332882c8.746946,6.77686 17.60323,10.109742 26.350176,10.109742c8.856283,0 17.60323,-3.332882 26.350176,-10.109742c1.093368,-0.777672 1.202705,-2.333017 0.437347,-3.332882c-0.656021,-1.110961 -2.186737,-1.222057 -3.170768,-0.444384z" class="st3" id="XMLID_425_"/>
     <path stroke="null" fill="#000000" d="m460.193741,538.211604c-15.85384,12.220567 -31.270333,12.220567 -47.124174,0c-1.093368,-0.777672 -2.514747,-0.55548 -3.280105,0.444384c-0.765358,1.110961 -0.546684,2.55521 0.437347,3.332882c8.746946,6.77686 17.60323,10.109742 26.350176,10.109742c8.856283,0 17.60323,-3.332882 26.350176,-10.109742c1.093368,-0.777672 1.202705,-2.333017 0.437347,-3.332882c-0.656021,-1.110961 -2.0774,-1.222057 -3.170768,-0.444384z" class="st3" id="XMLID_424_"/>
     <path stroke="null" fill="#000000" d="m397.762411,538.211604c-15.85384,12.220567 -31.270333,12.220567 -47.124174,0c-1.093368,-0.777672 -2.514747,-0.55548 -3.280105,0.444384c-0.765358,1.110961 -0.546684,2.55521 0.437347,3.332882c8.746946,6.77686 17.60323,10.109742 26.350176,10.109742c8.856283,0 17.60323,-3.332882 26.350176,-10.109742c1.093368,-0.777672 1.202705,-2.333017 0.437347,-3.332882c-0.546684,-1.110961 -2.0774,-1.222057 -3.170768,-0.444384z" class="st3" id="XMLID_423_"/>
    </g>
    <path stroke="null" fill="#000000" d="m656.45335,463.44395c16.837872,-74.87875 4.1548,-112.651413 -20.664661,-118.428409c-24.81946,-5.776996 -52.372341,22.774694 -69.100876,97.653444c-16.837872,74.87875 8.309599,173.643154 8.309599,173.643154s64.727403,-77.878344 81.455938,-152.86819z" class="st8" id="XMLID_287_"/>
    <path stroke="null" fill="#000000" d="m282.630729,463.44395c-16.837872,-74.87875 -4.1548,-112.651413 20.664661,-118.428409c24.81946,-5.776996 52.372341,22.774694 69.100876,97.653444c16.837872,74.87875 -8.309599,173.643154 -8.309599,173.643154s-64.618066,-77.878344 -81.455938,-152.86819z" class="st8" id="XMLID_286_"/>
    <path stroke="null" fill="#000000" d="m665.965655,260.693625c-2.40541,-4.110555 -7.544241,-5.554803 -11.699041,-3.332882l-16.837872,8.998782c-1.202705,-5.999188 -2.952094,-11.998375 -5.466841,-17.775371c-13.667104,-31.662379 -44.390753,-52.104056 -78.394507,-52.104056c-11.808378,0 -23.288745,2.444113 -34.222428,7.33234c-20.992671,9.33207 -37.065185,26.329768 -45.374784,47.882405c-1.858726,4.888227 -3.280105,9.776454 -4.264136,14.775777c-7.762915,-39.883488 -42.42269,-69.990523 -83.861348,-69.990523c-41.438658,0 -76.098434,30.107034 -83.861348,69.879427l-16.837872,-8.998782c-4.1548,-2.221921 -9.293631,-0.777672 -11.699041,3.332882c-1.312042,2.110825 -1.640052,4.666035 -0.984031,7.110148c0.656021,2.333017 2.296073,4.443843 4.48281,5.554803l2.296073,1.222057c0.32801,0.222192 0.656021,0.222192 0.984031,0.222192c0.765358,0 1.640052,-0.444384 1.968063,-1.222057c0.546684,-1.110961 0.109337,-2.444113 -0.984031,-2.999594l-2.296073,-1.222057c-1.093368,-0.55548 -1.858726,-1.555345 -2.186737,-2.777402c-0.32801,-1.222057 -0.218674,-2.444113 0.437347,-3.555074c1.202705,-1.999729 3.717452,-2.777402 5.794852,-1.666441l18.149914,9.665358c-0.546684,3.999458 -0.874695,8.110013 -0.874695,12.331664c0,47.882405 38.377227,86.877125 85.501401,86.877125c41.438658,0 76.098434,-30.107034 83.861348,-69.990523c1.202705,5.999188 3.061431,11.998375 5.466841,17.775371c13.667104,31.662379 44.390753,52.104056 78.394507,52.104056c0,0 0,0 0,0c11.808378,0 23.288745,-2.444113 34.222428,-7.33234c35.971817,-15.997834 55.761783,-54.214881 50.404279,-91.987544l18.149914,-9.665358c2.0774,-1.110961 4.592147,-0.333288 5.794852,1.666441c0.656021,1.110961 0.765358,2.333017 0.437347,3.555074c-0.32801,1.222057 -1.093368,2.221921 -2.186737,2.777402l-2.296073,1.222057c-1.093368,0.55548 -1.530716,1.888633 -0.984031,2.999594c0.437347,0.777672 1.202705,1.222057 1.968063,1.222057c0.32801,0 0.656021,-0.111096 0.984031,-0.222192l2.296073,-1.222057c2.186737,-1.110961 3.826789,-3.11069 4.48281,-5.554803c0.765358,-2.110825 0.437347,-4.777131 -0.765358,-6.887956zm-280.230295,105.09688c-44.8281,0 -81.127928,-36.883895 -81.127928,-82.433283c0,-45.549388 36.299827,-82.433283 81.127928,-82.433283c44.8281,0 81.127928,36.883895 81.127928,82.433283c-0.109337,45.549388 -36.409164,82.433283 -81.127928,82.433283zm200.195735,-6.887956c-41.001311,18.219755 -88.781506,-0.888769 -106.712746,-42.549794c-17.93124,-41.661026 0.874695,-90.210007 41.876006,-108.429762c41.001311,-18.219755 88.781506,0.888769 106.712746,42.549794c17.93124,41.661026 -0.874695,90.210007 -41.876006,108.429762z" class="st9" id="XMLID_494_"/>
    <path stroke="null" fill="#000000" d="m493.213464,345.126637l-23.616755,45.438292l-23.616755,-45.438292c-1.312042,-2.55521 -1.749389,-5.665899 -0.984031,-8.443301c5.576178,-20.33058 43.625395,-20.33058 49.201573,0c0.765358,2.777402 0.32801,5.888092 -0.984031,8.443301z" class="st10" id="XMLID_441_"/>
    <path stroke="null" fill="#000000" d="m481.186412,340.793891c-3.280105,1.110961 -20.117977,1.110961 -23.288745,0c-3.717452,-0.888769 -0.546684,-12.99824 11.699041,-13.220432c12.245725,0.222192 15.307156,12.331664 11.589704,13.220432z" class="st11" id="XMLID_439_"/>
   </g>
   <path stroke="null" fill="#000000" d="m658.968097,716.187505l0,-89.099047l12.355062,0l0,-12.553856l-347.363108,0c-31.05166,0 -56.308467,25.552096 -56.308467,57.214475l0,0c0,31.551283 25.147471,57.214475 56.308467,57.214475l347.363108,0l0,-12.553856l-12.355062,0l0,-0.222192z" class="st12" id="XMLID_740_"/>
   <path stroke="null" fill="#000000" d="m323.960051,716.187505c-24.163439,0 -43.844069,-19.997292 -43.844069,-44.549523c0,-24.552231 19.680629,-44.549523 43.844069,-44.549523l335.008046,0l0,89.099047l-335.008046,0z" class="st13" id="XMLID_491_"/>
   <path stroke="null" fill="#000000" d="m281.100014,680.858955c4.1548,20.108388 21.867366,35.32855 42.860037,35.32855l335.008046,0l0,-70.657099l-335.008046,0c-20.992671,0 -38.705238,15.220161 -42.860037,35.32855z" class="st14" id="XMLID_495_"/>
   <path stroke="null" fill="#000000" d="m619.278828,830.505359l0,-89.099047l12.355062,0l0,-12.553856l-347.363108,0c-31.05166,0 -56.308467,25.552096 -56.308467,57.214475l0,0c0,31.551283 25.147471,57.214475 56.308467,57.214475l347.363108,0l0,-12.553856l-12.355062,0l0,-0.222192z" class="st15" id="XMLID_496_"/>
   <path stroke="null" fill="#000000" d="m284.270782,830.505359c-24.163439,0 -43.844069,-19.997292 -43.844069,-44.549523c0,-24.552231 19.680629,-44.549523 43.844069,-44.549523l335.008046,0l0,89.099047l-335.008046,0z" class="st13" id="XMLID_492_"/>
   <path stroke="null" fill="#000000" d="m241.301408,795.176809c4.1548,20.108388 21.867366,35.32855 42.860037,35.32855l335.117383,0l0,-70.546003l-335.008046,0c-21.102008,0 -38.705238,15.109065 -42.969374,35.217454z" class="st14" id="XMLID_486_"/>
   <g stroke="null" id="XMLID_663_">
    <g stroke="null" id="XMLID_498_">
     <rect stroke="null" fill="#000000" height="85.988357" width="16.509861" class="st16" y="548.099154" x="142.132903" id="XMLID_321_"/>
     <rect stroke="null" fill="#000000" height="85.988357" width="8.309599" class="st17" y="548.099154" x="150.333165" id="XMLID_404_"/>
     <rect stroke="null" fill="#000000" height="3.332882" width="16.509861" class="st18" y="544.766272" x="142.132903" id="XMLID_401_"/>
     <rect stroke="null" fill="#000000" height="3.332882" width="16.509861" class="st13" y="541.322293" x="142.132903" id="XMLID_403_"/>
     <path stroke="null" fill="#000000" d="m155.36266,529.101726l-10.058988,0c-1.749389,0 -3.170768,1.444249 -3.170768,3.221786l0,8.998782l16.509861,0l0,-8.998782c0,-1.777537 -1.421379,-3.221786 -3.280105,-3.221786z" class="st19" id="XMLID_402_"/>
    </g>
    <g stroke="null" id="XMLID_410_">
     <rect stroke="null" fill="#000000" height="88.8" width="15.1" class="st20" transform="matrix(1.091837581975074,-0.05958379868838833,0.05864027202688054,1.1094053358926794,-37.94552751528701,19.930639439251173) " y="482.53009" x="112.72539" id="XMLID_457_"/>
     <rect stroke="null" fill="#000000" height="88.8" width="7.6" class="st21" transform="matrix(1.091837581975074,-0.05959255305855339,0.058648887769065565,1.1094053358926794,-37.93284444303494,20.158941859165) " y="482.328065" x="120.326182" id="XMLID_456_"/>
     <rect stroke="null" fill="#000000" height="3" width="15.6" class="st13" transform="matrix(1.091837581975074,-0.05957712181469645,0.05863370088341201,1.1094053358926794,-35.25988696591251,19.692560565345907) " y="479.531634" x="109.724785" id="XMLID_455_"/>
     <path stroke="null" fill="#000000" d="m109.441191,545.543944l2.0774,38.661432c0.109337,1.888633 1.640052,3.221786 3.498779,3.221786l0,0l-2.296073,-42.994178l-2.296073,0.111096c-0.656021,-0.111096 -1.093368,0.444384 -0.984031,0.999865z" class="st18" id="XMLID_454_"/>
     <path stroke="null" fill="#000000" d="m120.702885,529.101726l0,0c-4.1548,0.222192 -7.325568,3.888362 -7.106894,8.110013l0.437347,7.998917l15.088483,-0.777672l-0.437347,-7.998917c-0.32801,-4.332747 -3.826789,-7.554533 -7.981589,-7.33234z" class="st20" id="XMLID_453_"/>
     <path stroke="null" fill="#000000" d="m129.012484,544.321887l-0.437347,-7.998917c-0.218674,-4.221651 -3.826789,-7.443437 -7.981589,-7.221244l0.874695,15.664546l7.544241,-0.444384z" class="st21" id="XMLID_461_"/>
    </g>
    <g stroke="null" id="XMLID_406_">
     <polygon stroke="null" fill="#000000" points="170.66983032226562,580.0947875976562 166.84303283691406,634.0875244140625 183.46226501464844,634.0875244140625 187.17967224121094,581.31689453125 " class="st16" id="XMLID_501_"/>
     <polyline stroke="null" fill="#000000" points="166.84303283691406,634.0875244140625 183.46226501464844,634.0875244140625 187.17967224121094,581.31689453125 " class="st16" id="XMLID_499_"/>
     <polygon stroke="null" fill="#000000" points="178.87008666992188,580.7614135742188 175.15261840820312,634.0875244140625 183.46226501464844,634.0875244140625 186.7423553466797,587.0939331054688 187.17967224121094,581.31689453125 " class="st17" id="XMLID_502_"/>
     <rect stroke="null" fill="#000000" height="3" width="15.1" class="st18" transform="matrix(1.090634876847723,0.07866414843607095,-0.07741847892543091,1.108183279143749,44.84891212520658,-36.17331932773726) " y="542.137026" x="154.081448" id="XMLID_409_"/>
     <rect stroke="null" fill="#000000" height="3" width="15.1" class="st13" transform="matrix(1.090634876847723,0.07866473724523179,-0.07741905841062863,1.108183279143749,44.61635268830882,-36.198871423396724) " y="539.137171" x="154.28143" id="XMLID_408_"/>
     <path stroke="null" fill="#000000" d="m185.320951,562.097258l-10.058988,-0.777672c-1.749389,-0.111096 -3.280105,1.222057 -3.389442,2.999594l-0.656021,8.998782l16.509861,1.222057l0.656021,-8.998782c0,-1.777537 -1.312042,-3.332882 -3.061431,-3.443978z" class="st19" id="XMLID_407_"/>
    </g>
    <path stroke="null" fill="#000000" d="m69.423911,634.08751l162.474529,0l-13.44843,199.861826c-0.765358,12.109471 -11.699041,21.552637 -24.81946,21.552637l-85.938748,0c-13.12042,0 -24.054103,-9.443166 -24.81946,-21.552637l-13.44843,-199.861826z" class="st22" id="XMLID_285_"/>
    <rect stroke="null" fill="#000000" height="221.414464" width="28.318239" class="st23" y="634.08751" x="115.017369" id="XMLID_405_"/>
   </g>
   <rect stroke="null" fill="#000000" height="268.185908" width="346.051066" class="st24" y="582.09455" x="565.922455" id="XMLID_660_"/>
   <rect stroke="null" fill="#000000" height="230.413245" width="308.767207" class="st25" y="601.091978" x="584.509716" id="XMLID_662_"/>
   <rect stroke="null" fill="#000000" height="228.635708" width="15.416493" class="st26" y="614.534602" x="550.505962" id="XMLID_661_"/>
   <rect stroke="null" fill="#000000" height="18.886332" width="308.767207" class="st31" y="601.091978" x="584.509716" id="XMLID_2_"/>
   <g stroke="null" id="XMLID_794_">
    <path stroke="null" fill="#000000" d="m469.596708,141.709737l-77.301139,-23.44127l0,40.661161c0,35.995126 158.866414,35.995126 158.866414,0l0,-41.994314l-81.565275,24.774423z" class="st32" id="XMLID_825_"/>
   </g>
   <polygon stroke="null" fill="#000000" points="469.5966796875,49.5 469.5966796875,49.5 311.16766357421875,97.60459899902344 469.5966796875,145.82029724121094 469.5966796875,145.82029724121094 628.0258178710938,97.60459899902344 " class="st9" id="XMLID_821_"/>
   <polygon stroke="null" fill="#000000" points="469.5966796875,155.3745574951172 551.1619262695312,130.60012817382812 551.1619262695312,121.04586029052734 469.5966796875,145.82029724121094 392.18621826171875,122.2679214477539 392.18621826171875,131.93328094482422 " class="st33" id="XMLID_826_"/>
   <g stroke="null" id="XMLID_836_">
    <path stroke="null" fill="#000000" d="m555.863467,154.263592c-0.656021,0 -1.093368,-0.444384 -1.093368,-1.110961l0,-32.77334l-85.501401,-21.663733c-0.546684,-0.111096 -0.984031,-0.777672 -0.765358,-1.333153c0.109337,-0.55548 0.765358,-0.999865 1.312042,-0.777672l86.266759,21.885925c0.437347,0.111096 0.874695,0.55548 0.874695,1.110961l0,33.662109c0,0.55548 -0.437347,0.999865 -1.093368,0.999865z" class="st34" id="XMLID_852_"/>
   </g>
   <circle stroke="null" fill="#000000" r="2.944798" cy="144.264946" cx="555.863467" class="st16" id="XMLID_850_"/>
   <path stroke="null" fill="#000000" d="m558.487551,146.264675c-0.546684,0.888769 -1.530716,1.333153 -2.624084,1.333153s-2.0774,-0.55548 -2.624084,-1.333153c-2.624084,2.110825 -3.717452,4.999323 -3.389442,8.776589c0,2.777402 12.136388,2.777402 12.136388,0c0.218674,-3.777266 -0.765358,-6.77686 -3.498779,-8.776589z" class="st34" id="XMLID_853_"/>
   <path stroke="null" fill="#000000" d="m558.596888,146.375771c0,0 -0.109337,-0.111096 -0.109337,-0.111096c-0.546684,0.888769 -1.530716,1.333153 -2.624084,1.333153s-2.0774,-0.55548 -2.624084,-1.333153c-0.109337,0.111096 -0.218674,0.222192 -0.437347,0.333288c0.546684,0.999865 1.640052,1.666441 2.842758,1.666441c1.312042,0.111096 2.514747,-0.777672 2.952094,-1.888633z" class="st35" id="XMLID_855_"/>
   <path stroke="null" fill="#000000" d="m555.863467,140.932064c0.437347,0 0.765358,0.111096 1.093368,0.222192l0,-0.444384c-0.32801,-0.111096 -0.656021,-0.222192 -1.093368,-0.222192c-0.437347,0 -0.765358,0.111096 -1.093368,0.222192l0,0.444384c0.32801,-0.111096 0.765358,-0.222192 1.093368,-0.222192z" class="st35" id="XMLID_856_"/>
   <path stroke="null" fill="#000000" d="m469.268698,98.715558c-0.109337,0 -0.218674,-0.111096 -0.32801,-0.111096c0.109337,0.444384 0.32801,0.777672 0.765358,0.888769l82.986654,21.108253l1.093368,-0.333288l-84.517369,-21.552637z" class="st32" id="XMLID_858_"/>
  </g>
  <line stroke="null" stroke-linecap="null" stroke-linejoin="null" id="svg_7" y2="965.999973" x2="1402.500057" y1="16" x1="0.5" fill-opacity="null" stroke-opacity="null" stroke-width="null" fill="none"/>
 </g>
</svg>